ISO-10303-21;
HEADER;
/* Generated by software containing ST-Developer
 * from STEP Tools, Inc. (www.steptools.com) 
 */
/* OPTION: using custom renumber hook */

FILE_DESCRIPTION(
/* description */ ('STEP AP242',
'CAx-IF Rec.Pracs.---Representation and Presentation of Product Manufa
cturing Information (PMI)---4.0---2014-10-13',
'CAx-IF Rec.Pracs.---3D Tessellated Geometry---0.4---2014-09-14','2;1'),

/* implementation_level */ '2;1');

FILE_NAME(
/* name */ '6523a07648d52d505e616d04',
/* time_stamp */ '2023-10-09T06:40:55Z',
/* author */ (''),
/* organization */ (''),
/* preprocessor_version */ 'ST-DEVELOPER v19.4',
/* originating_system */ '  ',
/* authorisation */ '  ');

FILE_SCHEMA (('AP242_MANAGED_MODEL_BASED_3D_ENGINEERING_MIM_LF { 1 0 10303 442 1 1 4 }'));
ENDSEC;

DATA;
#10=SHAPE_REPRESENTATION_RELATIONSHIP('','',#995,#11);
#11=ADVANCED_BREP_SHAPE_REPRESENTATION('',(#993),#1671);
#12=CONICAL_SURFACE('',#1064,0.0014,0.78539816339745);
#13=CONICAL_SURFACE('',#1065,0.0014,0.78539816339745);
#14=CONICAL_SURFACE('',#1068,0.0014,0.78539816339745);
#15=CONICAL_SURFACE('',#1069,0.0014,0.78539816339745);
#16=CYLINDRICAL_SURFACE('',#1051,0.003);
#17=CYLINDRICAL_SURFACE('',#1052,0.003);
#18=CYLINDRICAL_SURFACE('',#1053,0.003);
#19=CYLINDRICAL_SURFACE('',#1054,0.003);
#20=CYLINDRICAL_SURFACE('',#1055,0.003);
#21=CYLINDRICAL_SURFACE('',#1057,0.003);
#22=CYLINDRICAL_SURFACE('',#1059,0.003);
#23=CYLINDRICAL_SURFACE('',#1061,0.003);
#24=CYLINDRICAL_SURFACE('',#1073,0.006);
#25=CYLINDRICAL_SURFACE('',#1074,0.002);
#26=CYLINDRICAL_SURFACE('',#1079,0.006);
#27=CYLINDRICAL_SURFACE('',#1080,0.002);
#28=CYLINDRICAL_SURFACE('',#1085,0.006);
#29=CYLINDRICAL_SURFACE('',#1086,0.002);
#30=CYLINDRICAL_SURFACE('',#1091,0.006);
#31=CYLINDRICAL_SURFACE('',#1092,0.002);
#32=CYLINDRICAL_SURFACE('',#1095,0.0021);
#33=CYLINDRICAL_SURFACE('',#1096,0.00275);
#34=CYLINDRICAL_SURFACE('',#1097,0.00275);
#35=CYLINDRICAL_SURFACE('',#1098,0.00275);
#36=CYLINDRICAL_SURFACE('',#1099,0.00275);
#37=CIRCLE('',#999,0.00275);
#38=CIRCLE('',#1000,0.00275);
#39=CIRCLE('',#1001,0.00275);
#40=CIRCLE('',#1002,0.00275);
#41=CIRCLE('',#1003,0.0021);
#42=CIRCLE('',#1004,0.006);
#43=CIRCLE('',#1005,0.006);
#44=CIRCLE('',#1006,0.006);
#45=CIRCLE('',#1007,0.006);
#46=CIRCLE('',#1012,0.006);
#47=CIRCLE('',#1013,0.006);
#48=CIRCLE('',#1014,0.006);
#49=CIRCLE('',#1015,0.006);
#50=CIRCLE('',#1016,0.002);
#51=CIRCLE('',#1017,0.003);
#52=CIRCLE('',#1018,0.003);
#53=CIRCLE('',#1019,0.003);
#54=CIRCLE('',#1020,0.003);
#55=CIRCLE('',#1021,0.002);
#56=CIRCLE('',#1022,0.002);
#57=CIRCLE('',#1023,0.002);
#58=CIRCLE('',#1029,0.003);
#59=CIRCLE('',#1030,0.003);
#60=CIRCLE('',#1031,0.003);
#61=CIRCLE('',#1032,0.003);
#62=CIRCLE('',#1033,0.003);
#63=CIRCLE('',#1034,0.003);
#64=CIRCLE('',#1035,0.003);
#65=CIRCLE('',#1036,0.003);
#66=CIRCLE('',#1038,0.00275);
#67=CIRCLE('',#1039,0.00275);
#68=CIRCLE('',#1040,0.00275);
#69=CIRCLE('',#1041,0.00275);
#70=CIRCLE('',#1042,0.0021);
#71=CIRCLE('',#1043,0.0014);
#72=CIRCLE('',#1044,0.0014);
#73=CIRCLE('',#1045,0.0014);
#74=CIRCLE('',#1046,0.0014);
#75=CIRCLE('',#1056,0.003);
#76=CIRCLE('',#1058,0.003);
#77=CIRCLE('',#1060,0.003);
#78=CIRCLE('',#1062,0.003);
#79=CIRCLE('',#1075,0.002);
#80=CIRCLE('',#1081,0.002);
#81=CIRCLE('',#1087,0.002);
#82=CIRCLE('',#1093,0.002);
#83=ORIENTED_EDGE('',*,*,#343,.F.);
#84=ORIENTED_EDGE('',*,*,#344,.T.);
#85=ORIENTED_EDGE('',*,*,#345,.T.);
#86=ORIENTED_EDGE('',*,*,#346,.F.);
#87=ORIENTED_EDGE('',*,*,#347,.F.);
#88=ORIENTED_EDGE('',*,*,#348,.F.);
#89=ORIENTED_EDGE('',*,*,#349,.F.);
#90=ORIENTED_EDGE('',*,*,#350,.F.);
#91=ORIENTED_EDGE('',*,*,#351,.F.);
#92=ORIENTED_EDGE('',*,*,#352,.T.);
#93=ORIENTED_EDGE('',*,*,#353,.T.);
#94=ORIENTED_EDGE('',*,*,#346,.T.);
#95=ORIENTED_EDGE('',*,*,#354,.F.);
#96=ORIENTED_EDGE('',*,*,#355,.F.);
#97=ORIENTED_EDGE('',*,*,#356,.T.);
#98=ORIENTED_EDGE('',*,*,#357,.F.);
#99=ORIENTED_EDGE('',*,*,#358,.F.);
#100=ORIENTED_EDGE('',*,*,#359,.T.);
#101=ORIENTED_EDGE('',*,*,#360,.T.);
#102=ORIENTED_EDGE('',*,*,#361,.F.);
#103=ORIENTED_EDGE('',*,*,#362,.F.);
#104=ORIENTED_EDGE('',*,*,#363,.F.);
#105=ORIENTED_EDGE('',*,*,#364,.T.);
#106=ORIENTED_EDGE('',*,*,#365,.T.);
#107=ORIENTED_EDGE('',*,*,#366,.F.);
#108=ORIENTED_EDGE('',*,*,#367,.F.);
#109=ORIENTED_EDGE('',*,*,#368,.T.);
#110=ORIENTED_EDGE('',*,*,#361,.T.);
#111=ORIENTED_EDGE('',*,*,#369,.F.);
#112=ORIENTED_EDGE('',*,*,#370,.T.);
#113=ORIENTED_EDGE('',*,*,#371,.T.);
#114=ORIENTED_EDGE('',*,*,#365,.F.);
#115=ORIENTED_EDGE('',*,*,#372,.F.);
#116=ORIENTED_EDGE('',*,*,#373,.F.);
#117=ORIENTED_EDGE('',*,*,#374,.F.);
#118=ORIENTED_EDGE('',*,*,#375,.T.);
#119=ORIENTED_EDGE('',*,*,#357,.T.);
#120=ORIENTED_EDGE('',*,*,#376,.T.);
#121=ORIENTED_EDGE('',*,*,#370,.F.);
#122=ORIENTED_EDGE('',*,*,#377,.F.);
#123=ORIENTED_EDGE('',*,*,#378,.T.);
#124=ORIENTED_EDGE('',*,*,#379,.T.);
#125=ORIENTED_EDGE('',*,*,#367,.T.);
#126=ORIENTED_EDGE('',*,*,#380,.F.);
#127=ORIENTED_EDGE('',*,*,#381,.F.);
#128=ORIENTED_EDGE('',*,*,#382,.T.);
#129=ORIENTED_EDGE('',*,*,#374,.T.);
#130=ORIENTED_EDGE('',*,*,#383,.F.);
#131=ORIENTED_EDGE('',*,*,#384,.T.);
#132=ORIENTED_EDGE('',*,*,#385,.T.);
#133=ORIENTED_EDGE('',*,*,#344,.F.);
#134=ORIENTED_EDGE('',*,*,#386,.F.);
#135=ORIENTED_EDGE('',*,*,#387,.F.);
#136=ORIENTED_EDGE('',*,*,#388,.F.);
#137=ORIENTED_EDGE('',*,*,#389,.F.);
#138=ORIENTED_EDGE('',*,*,#390,.T.);
#139=ORIENTED_EDGE('',*,*,#391,.T.);
#140=ORIENTED_EDGE('',*,*,#392,.T.);
#141=ORIENTED_EDGE('',*,*,#393,.T.);
#142=ORIENTED_EDGE('',*,*,#394,.T.);
#143=ORIENTED_EDGE('',*,*,#395,.F.);
#144=ORIENTED_EDGE('',*,*,#396,.T.);
#145=ORIENTED_EDGE('',*,*,#397,.T.);
#146=ORIENTED_EDGE('',*,*,#398,.F.);
#147=ORIENTED_EDGE('',*,*,#399,.T.);
#148=ORIENTED_EDGE('',*,*,#400,.F.);
#149=ORIENTED_EDGE('',*,*,#401,.T.);
#150=ORIENTED_EDGE('',*,*,#395,.T.);
#151=ORIENTED_EDGE('',*,*,#402,.T.);
#152=ORIENTED_EDGE('',*,*,#403,.F.);
#153=ORIENTED_EDGE('',*,*,#404,.T.);
#154=ORIENTED_EDGE('',*,*,#389,.T.);
#155=ORIENTED_EDGE('',*,*,#405,.T.);
#156=ORIENTED_EDGE('',*,*,#391,.F.);
#157=ORIENTED_EDGE('',*,*,#406,.T.);
#158=ORIENTED_EDGE('',*,*,#407,.T.);
#159=ORIENTED_EDGE('',*,*,#408,.T.);
#160=ORIENTED_EDGE('',*,*,#409,.T.);
#161=ORIENTED_EDGE('',*,*,#410,.T.);
#162=ORIENTED_EDGE('',*,*,#393,.F.);
#163=ORIENTED_EDGE('',*,*,#411,.T.);
#164=ORIENTED_EDGE('',*,*,#412,.T.);
#165=ORIENTED_EDGE('',*,*,#413,.T.);
#166=ORIENTED_EDGE('',*,*,#414,.T.);
#167=ORIENTED_EDGE('',*,*,#415,.T.);
#168=ORIENTED_EDGE('',*,*,#416,.F.);
#169=ORIENTED_EDGE('',*,*,#417,.T.);
#170=ORIENTED_EDGE('',*,*,#418,.F.);
#171=ORIENTED_EDGE('',*,*,#419,.T.);
#172=ORIENTED_EDGE('',*,*,#403,.T.);
#173=ORIENTED_EDGE('',*,*,#420,.T.);
#174=ORIENTED_EDGE('',*,*,#400,.T.);
#175=ORIENTED_EDGE('',*,*,#421,.T.);
#176=ORIENTED_EDGE('',*,*,#409,.F.);
#177=ORIENTED_EDGE('',*,*,#422,.T.);
#178=ORIENTED_EDGE('',*,*,#407,.F.);
#179=ORIENTED_EDGE('',*,*,#423,.T.);
#180=ORIENTED_EDGE('',*,*,#424,.F.);
#181=ORIENTED_EDGE('',*,*,#425,.F.);
#182=ORIENTED_EDGE('',*,*,#426,.F.);
#183=ORIENTED_EDGE('',*,*,#427,.F.);
#184=ORIENTED_EDGE('',*,*,#428,.F.);
#185=ORIENTED_EDGE('',*,*,#429,.T.);
#186=ORIENTED_EDGE('',*,*,#430,.T.);
#187=ORIENTED_EDGE('',*,*,#431,.T.);
#188=ORIENTED_EDGE('',*,*,#432,.T.);
#189=ORIENTED_EDGE('',*,*,#433,.T.);
#190=ORIENTED_EDGE('',*,*,#434,.T.);
#191=ORIENTED_EDGE('',*,*,#435,.T.);
#192=ORIENTED_EDGE('',*,*,#436,.T.);
#193=ORIENTED_EDGE('',*,*,#437,.T.);
#194=ORIENTED_EDGE('',*,*,#438,.T.);
#195=ORIENTED_EDGE('',*,*,#439,.T.);
#196=ORIENTED_EDGE('',*,*,#418,.T.);
#197=ORIENTED_EDGE('',*,*,#440,.T.);
#198=ORIENTED_EDGE('',*,*,#441,.T.);
#199=ORIENTED_EDGE('',*,*,#442,.T.);
#200=ORIENTED_EDGE('',*,*,#416,.T.);
#201=ORIENTED_EDGE('',*,*,#443,.T.);
#202=ORIENTED_EDGE('',*,*,#444,.T.);
#203=ORIENTED_EDGE('',*,*,#445,.T.);
#204=ORIENTED_EDGE('',*,*,#414,.F.);
#205=ORIENTED_EDGE('',*,*,#446,.T.);
#206=ORIENTED_EDGE('',*,*,#447,.T.);
#207=ORIENTED_EDGE('',*,*,#448,.T.);
#208=ORIENTED_EDGE('',*,*,#412,.F.);
#209=ORIENTED_EDGE('',*,*,#390,.F.);
#210=ORIENTED_EDGE('',*,*,#404,.F.);
#211=ORIENTED_EDGE('',*,*,#423,.F.);
#212=ORIENTED_EDGE('',*,*,#406,.F.);
#213=ORIENTED_EDGE('',*,*,#396,.F.);
#214=ORIENTED_EDGE('',*,*,#401,.F.);
#215=ORIENTED_EDGE('',*,*,#420,.F.);
#216=ORIENTED_EDGE('',*,*,#405,.F.);
#217=ORIENTED_EDGE('',*,*,#394,.F.);
#218=ORIENTED_EDGE('',*,*,#410,.F.);
#219=ORIENTED_EDGE('',*,*,#421,.F.);
#220=ORIENTED_EDGE('',*,*,#402,.F.);
#221=ORIENTED_EDGE('',*,*,#392,.F.);
#222=ORIENTED_EDGE('',*,*,#408,.F.);
#223=ORIENTED_EDGE('',*,*,#422,.F.);
#224=ORIENTED_EDGE('',*,*,#411,.F.);
#225=ORIENTED_EDGE('',*,*,#448,.F.);
#226=ORIENTED_EDGE('',*,*,#449,.T.);
#227=ORIENTED_EDGE('',*,*,#443,.F.);
#228=ORIENTED_EDGE('',*,*,#413,.F.);
#229=ORIENTED_EDGE('',*,*,#439,.F.);
#230=ORIENTED_EDGE('',*,*,#450,.T.);
#231=ORIENTED_EDGE('',*,*,#446,.F.);
#232=ORIENTED_EDGE('',*,*,#419,.F.);
#233=ORIENTED_EDGE('',*,*,#442,.F.);
#234=ORIENTED_EDGE('',*,*,#451,.T.);
#235=ORIENTED_EDGE('',*,*,#437,.F.);
#236=ORIENTED_EDGE('',*,*,#417,.F.);
#237=ORIENTED_EDGE('',*,*,#445,.F.);
#238=ORIENTED_EDGE('',*,*,#452,.T.);
#239=ORIENTED_EDGE('',*,*,#440,.F.);
#240=ORIENTED_EDGE('',*,*,#415,.F.);
#241=ORIENTED_EDGE('',*,*,#453,.F.);
#242=ORIENTED_EDGE('',*,*,#447,.F.);
#243=ORIENTED_EDGE('',*,*,#454,.F.);
#244=ORIENTED_EDGE('',*,*,#435,.F.);
#245=ORIENTED_EDGE('',*,*,#454,.T.);
#246=ORIENTED_EDGE('',*,*,#450,.F.);
#247=ORIENTED_EDGE('',*,*,#455,.F.);
#248=ORIENTED_EDGE('',*,*,#436,.F.);
#249=ORIENTED_EDGE('',*,*,#453,.T.);
#250=ORIENTED_EDGE('',*,*,#434,.F.);
#251=ORIENTED_EDGE('',*,*,#456,.F.);
#252=ORIENTED_EDGE('',*,*,#449,.F.);
#253=ORIENTED_EDGE('',*,*,#455,.T.);
#254=ORIENTED_EDGE('',*,*,#438,.F.);
#255=ORIENTED_EDGE('',*,*,#457,.F.);
#256=ORIENTED_EDGE('',*,*,#429,.F.);
#257=ORIENTED_EDGE('',*,*,#456,.T.);
#258=ORIENTED_EDGE('',*,*,#433,.F.);
#259=ORIENTED_EDGE('',*,*,#458,.F.);
#260=ORIENTED_EDGE('',*,*,#444,.F.);
#261=ORIENTED_EDGE('',*,*,#457,.T.);
#262=ORIENTED_EDGE('',*,*,#451,.F.);
#263=ORIENTED_EDGE('',*,*,#459,.F.);
#264=ORIENTED_EDGE('',*,*,#430,.F.);
#265=ORIENTED_EDGE('',*,*,#458,.T.);
#266=ORIENTED_EDGE('',*,*,#432,.F.);
#267=ORIENTED_EDGE('',*,*,#460,.F.);
#268=ORIENTED_EDGE('',*,*,#452,.F.);
#269=ORIENTED_EDGE('',*,*,#459,.T.);
#270=ORIENTED_EDGE('',*,*,#441,.F.);
#271=ORIENTED_EDGE('',*,*,#460,.T.);
#272=ORIENTED_EDGE('',*,*,#431,.F.);
#273=ORIENTED_EDGE('',*,*,#360,.F.);
#274=ORIENTED_EDGE('',*,*,#461,.F.);
#275=ORIENTED_EDGE('',*,*,#380,.T.);
#276=ORIENTED_EDGE('',*,*,#369,.T.);
#277=ORIENTED_EDGE('',*,*,#358,.T.);
#278=ORIENTED_EDGE('',*,*,#375,.F.);
#279=ORIENTED_EDGE('',*,*,#382,.F.);
#280=ORIENTED_EDGE('',*,*,#462,.T.);
#281=ORIENTED_EDGE('',*,*,#359,.F.);
#282=ORIENTED_EDGE('',*,*,#462,.F.);
#283=ORIENTED_EDGE('',*,*,#381,.T.);
#284=ORIENTED_EDGE('',*,*,#461,.T.);
#285=ORIENTED_EDGE('',*,*,#397,.F.);
#286=ORIENTED_EDGE('',*,*,#463,.T.);
#287=ORIENTED_EDGE('',*,*,#463,.F.);
#288=ORIENTED_EDGE('',*,*,#362,.T.);
#289=ORIENTED_EDGE('',*,*,#368,.F.);
#290=ORIENTED_EDGE('',*,*,#379,.F.);
#291=ORIENTED_EDGE('',*,*,#464,.T.);
#292=ORIENTED_EDGE('',*,*,#364,.F.);
#293=ORIENTED_EDGE('',*,*,#465,.F.);
#294=ORIENTED_EDGE('',*,*,#377,.T.);
#295=ORIENTED_EDGE('',*,*,#372,.T.);
#296=ORIENTED_EDGE('',*,*,#363,.T.);
#297=ORIENTED_EDGE('',*,*,#464,.F.);
#298=ORIENTED_EDGE('',*,*,#378,.F.);
#299=ORIENTED_EDGE('',*,*,#465,.T.);
#300=ORIENTED_EDGE('',*,*,#388,.T.);
#301=ORIENTED_EDGE('',*,*,#466,.F.);
#302=ORIENTED_EDGE('',*,*,#466,.T.);
#303=ORIENTED_EDGE('',*,*,#354,.T.);
#304=ORIENTED_EDGE('',*,*,#345,.F.);
#305=ORIENTED_EDGE('',*,*,#385,.F.);
#306=ORIENTED_EDGE('',*,*,#467,.T.);
#307=ORIENTED_EDGE('',*,*,#356,.F.);
#308=ORIENTED_EDGE('',*,*,#468,.F.);
#309=ORIENTED_EDGE('',*,*,#383,.T.);
#310=ORIENTED_EDGE('',*,*,#373,.T.);
#311=ORIENTED_EDGE('',*,*,#355,.T.);
#312=ORIENTED_EDGE('',*,*,#467,.F.);
#313=ORIENTED_EDGE('',*,*,#384,.F.);
#314=ORIENTED_EDGE('',*,*,#468,.T.);
#315=ORIENTED_EDGE('',*,*,#398,.T.);
#316=ORIENTED_EDGE('',*,*,#469,.F.);
#317=ORIENTED_EDGE('',*,*,#469,.T.);
#318=ORIENTED_EDGE('',*,*,#353,.F.);
#319=ORIENTED_EDGE('',*,*,#470,.F.);
#320=ORIENTED_EDGE('',*,*,#386,.T.);
#321=ORIENTED_EDGE('',*,*,#343,.T.);
#322=ORIENTED_EDGE('',*,*,#366,.T.);
#323=ORIENTED_EDGE('',*,*,#371,.F.);
#324=ORIENTED_EDGE('',*,*,#376,.F.);
#325=ORIENTED_EDGE('',*,*,#471,.T.);
#326=ORIENTED_EDGE('',*,*,#352,.F.);
#327=ORIENTED_EDGE('',*,*,#471,.F.);
#328=ORIENTED_EDGE('',*,*,#387,.T.);
#329=ORIENTED_EDGE('',*,*,#470,.T.);
#330=ORIENTED_EDGE('',*,*,#399,.F.);
#331=ORIENTED_EDGE('',*,*,#472,.T.);
#332=ORIENTED_EDGE('',*,*,#472,.F.);
#333=ORIENTED_EDGE('',*,*,#351,.T.);
#334=ORIENTED_EDGE('',*,*,#428,.T.);
#335=ORIENTED_EDGE('',*,*,#350,.T.);
#336=ORIENTED_EDGE('',*,*,#427,.T.);
#337=ORIENTED_EDGE('',*,*,#349,.T.);
#338=ORIENTED_EDGE('',*,*,#426,.T.);
#339=ORIENTED_EDGE('',*,*,#348,.T.);
#340=ORIENTED_EDGE('',*,*,#425,.T.);
#341=ORIENTED_EDGE('',*,*,#347,.T.);
#342=ORIENTED_EDGE('',*,*,#424,.T.);
#343=EDGE_CURVE('',#473,#474,#563,.T.);
#344=EDGE_CURVE('',#473,#475,#564,.T.);
#345=EDGE_CURVE('',#475,#476,#565,.T.);
#346=EDGE_CURVE('',#474,#476,#566,.T.);
#347=EDGE_CURVE('',#477,#477,#37,.F.);
#348=EDGE_CURVE('',#478,#478,#38,.F.);
#349=EDGE_CURVE('',#479,#479,#39,.F.);
#350=EDGE_CURVE('',#480,#480,#40,.F.);
#351=EDGE_CURVE('',#481,#481,#41,.F.);
#352=EDGE_CURVE('',#482,#483,#42,.T.);
#353=EDGE_CURVE('',#483,#474,#567,.T.);
#354=EDGE_CURVE('',#484,#476,#568,.T.);
#355=EDGE_CURVE('',#485,#484,#43,.T.);
#356=EDGE_CURVE('',#485,#486,#569,.T.);
#357=EDGE_CURVE('',#487,#486,#570,.T.);
#358=EDGE_CURVE('',#488,#487,#571,.T.);
#359=EDGE_CURVE('',#488,#489,#44,.T.);
#360=EDGE_CURVE('',#489,#490,#572,.T.);
#361=EDGE_CURVE('',#491,#490,#573,.T.);
#362=EDGE_CURVE('',#492,#491,#574,.T.);
#363=EDGE_CURVE('',#493,#492,#45,.T.);
#364=EDGE_CURVE('',#493,#494,#575,.T.);
#365=EDGE_CURVE('',#494,#495,#576,.T.);
#366=EDGE_CURVE('',#482,#495,#577,.T.);
#367=EDGE_CURVE('',#496,#497,#578,.T.);
#368=EDGE_CURVE('',#496,#491,#579,.T.);
#369=EDGE_CURVE('',#497,#490,#580,.T.);
#370=EDGE_CURVE('',#498,#499,#581,.T.);
#371=EDGE_CURVE('',#499,#495,#582,.T.);
#372=EDGE_CURVE('',#498,#494,#583,.T.);
#373=EDGE_CURVE('',#500,#486,#584,.T.);
#374=EDGE_CURVE('',#501,#500,#585,.T.);
#375=EDGE_CURVE('',#501,#487,#586,.T.);
#376=EDGE_CURVE('',#502,#499,#587,.T.);
#377=EDGE_CURVE('',#503,#498,#588,.T.);
#378=EDGE_CURVE('',#503,#504,#46,.T.);
#379=EDGE_CURVE('',#504,#496,#589,.T.);
#380=EDGE_CURVE('',#505,#497,#590,.T.);
#381=EDGE_CURVE('',#506,#505,#47,.T.);
#382=EDGE_CURVE('',#506,#501,#591,.T.);
#383=EDGE_CURVE('',#507,#500,#592,.T.);
#384=EDGE_CURVE('',#507,#508,#48,.T.);
#385=EDGE_CURVE('',#508,#475,#593,.T.);
#386=EDGE_CURVE('',#509,#473,#594,.T.);
#387=EDGE_CURVE('',#502,#509,#49,.T.);
#388=EDGE_CURVE('',#510,#510,#50,.T.);
#389=EDGE_CURVE('',#511,#512,#595,.T.);
#390=EDGE_CURVE('',#511,#513,#51,.F.);
#391=EDGE_CURVE('',#513,#514,#596,.T.);
#392=EDGE_CURVE('',#514,#515,#52,.F.);
#393=EDGE_CURVE('',#515,#516,#597,.T.);
#394=EDGE_CURVE('',#516,#517,#53,.F.);
#395=EDGE_CURVE('',#518,#517,#598,.T.);
#396=EDGE_CURVE('',#518,#512,#54,.F.);
#397=EDGE_CURVE('',#519,#519,#55,.T.);
#398=EDGE_CURVE('',#520,#520,#56,.T.);
#399=EDGE_CURVE('',#521,#521,#57,.T.);
#400=EDGE_CURVE('',#522,#523,#599,.T.);
#401=EDGE_CURVE('',#522,#518,#600,.F.);
#402=EDGE_CURVE('',#517,#523,#601,.T.);
#403=EDGE_CURVE('',#524,#525,#602,.T.);
#404=EDGE_CURVE('',#524,#511,#603,.F.);
#405=EDGE_CURVE('',#512,#525,#604,.T.);
#406=EDGE_CURVE('',#513,#526,#605,.T.);
#407=EDGE_CURVE('',#526,#527,#606,.T.);
#408=EDGE_CURVE('',#527,#514,#607,.F.);
#409=EDGE_CURVE('',#528,#529,#608,.T.);
#410=EDGE_CURVE('',#529,#516,#609,.F.);
#411=EDGE_CURVE('',#515,#528,#610,.T.);
#412=EDGE_CURVE('',#530,#531,#611,.T.);
#413=EDGE_CURVE('',#531,#532,#58,.F.);
#414=EDGE_CURVE('',#532,#533,#612,.T.);
#415=EDGE_CURVE('',#533,#534,#59,.F.);
#416=EDGE_CURVE('',#535,#534,#613,.T.);
#417=EDGE_CURVE('',#535,#536,#60,.F.);
#418=EDGE_CURVE('',#537,#536,#614,.T.);
#419=EDGE_CURVE('',#537,#530,#61,.F.);
#420=EDGE_CURVE('',#525,#522,#62,.T.);
#421=EDGE_CURVE('',#523,#529,#63,.T.);
#422=EDGE_CURVE('',#528,#527,#64,.T.);
#423=EDGE_CURVE('',#526,#524,#65,.T.);
#424=EDGE_CURVE('',#538,#538,#66,.T.);
#425=EDGE_CURVE('',#539,#539,#67,.T.);
#426=EDGE_CURVE('',#540,#540,#68,.T.);
#427=EDGE_CURVE('',#541,#541,#69,.T.);
#428=EDGE_CURVE('',#542,#542,#70,.T.);
#429=EDGE_CURVE('',#543,#544,#615,.T.);
#430=EDGE_CURVE('',#544,#545,#71,.T.);
#431=EDGE_CURVE('',#545,#546,#616,.T.);
#432=EDGE_CURVE('',#546,#547,#72,.T.);
#433=EDGE_CURVE('',#547,#548,#617,.T.);
#434=EDGE_CURVE('',#548,#549,#73,.T.);
#435=EDGE_CURVE('',#549,#550,#618,.T.);
#436=EDGE_CURVE('',#550,#543,#74,.T.);
#437=EDGE_CURVE('',#536,#551,#619,.F.);
#438=EDGE_CURVE('',#551,#552,#620,.T.);
#439=EDGE_CURVE('',#552,#537,#621,.T.);
#440=EDGE_CURVE('',#534,#553,#622,.F.);
#441=EDGE_CURVE('',#553,#554,#623,.T.);
#442=EDGE_CURVE('',#554,#535,#624,.T.);
#443=EDGE_CURVE('',#532,#555,#625,.F.);
#444=EDGE_CURVE('',#555,#556,#626,.T.);
#445=EDGE_CURVE('',#556,#533,#627,.T.);
#446=EDGE_CURVE('',#530,#557,#628,.F.);
#447=EDGE_CURVE('',#557,#558,#629,.T.);
#448=EDGE_CURVE('',#558,#531,#630,.T.);
#449=EDGE_CURVE('',#558,#555,#75,.F.);
#450=EDGE_CURVE('',#552,#557,#76,.F.);
#451=EDGE_CURVE('',#554,#551,#77,.F.);
#452=EDGE_CURVE('',#556,#553,#78,.F.);
#453=EDGE_CURVE('',#558,#549,#631,.T.);
#454=EDGE_CURVE('',#550,#557,#632,.T.);
#455=EDGE_CURVE('',#543,#552,#633,.T.);
#456=EDGE_CURVE('',#555,#548,#634,.T.);
#457=EDGE_CURVE('',#544,#551,#635,.T.);
#458=EDGE_CURVE('',#556,#547,#636,.T.);
#459=EDGE_CURVE('',#545,#554,#637,.T.);
#460=EDGE_CURVE('',#553,#546,#638,.T.);
#461=EDGE_CURVE('',#505,#489,#639,.T.);
#462=EDGE_CURVE('',#506,#488,#640,.T.);
#463=EDGE_CURVE('',#559,#559,#79,.T.);
#464=EDGE_CURVE('',#504,#492,#641,.T.);
#465=EDGE_CURVE('',#503,#493,#642,.T.);
#466=EDGE_CURVE('',#560,#560,#80,.T.);
#467=EDGE_CURVE('',#508,#484,#643,.T.);
#468=EDGE_CURVE('',#507,#485,#644,.T.);
#469=EDGE_CURVE('',#561,#561,#81,.T.);
#470=EDGE_CURVE('',#509,#483,#645,.T.);
#471=EDGE_CURVE('',#502,#482,#646,.T.);
#472=EDGE_CURVE('',#562,#562,#82,.T.);
#473=VERTEX_POINT('',#1395);
#474=VERTEX_POINT('',#1396);
#475=VERTEX_POINT('',#1398);
#476=VERTEX_POINT('',#1400);
#477=VERTEX_POINT('',#1404);
#478=VERTEX_POINT('',#1406);
#479=VERTEX_POINT('',#1408);
#480=VERTEX_POINT('',#1410);
#481=VERTEX_POINT('',#1412);
#482=VERTEX_POINT('',#1414);
#483=VERTEX_POINT('',#1415);
#484=VERTEX_POINT('',#1418);
#485=VERTEX_POINT('',#1420);
#486=VERTEX_POINT('',#1422);
#487=VERTEX_POINT('',#1424);
#488=VERTEX_POINT('',#1426);
#489=VERTEX_POINT('',#1428);
#490=VERTEX_POINT('',#1430);
#491=VERTEX_POINT('',#1432);
#492=VERTEX_POINT('',#1434);
#493=VERTEX_POINT('',#1436);
#494=VERTEX_POINT('',#1438);
#495=VERTEX_POINT('',#1440);
#496=VERTEX_POINT('',#1444);
#497=VERTEX_POINT('',#1445);
#498=VERTEX_POINT('',#1450);
#499=VERTEX_POINT('',#1451);
#500=VERTEX_POINT('',#1456);
#501=VERTEX_POINT('',#1458);
#502=VERTEX_POINT('',#1462);
#503=VERTEX_POINT('',#1464);
#504=VERTEX_POINT('',#1466);
#505=VERTEX_POINT('',#1469);
#506=VERTEX_POINT('',#1471);
#507=VERTEX_POINT('',#1474);
#508=VERTEX_POINT('',#1476);
#509=VERTEX_POINT('',#1479);
#510=VERTEX_POINT('',#1482);
#511=VERTEX_POINT('',#1484);
#512=VERTEX_POINT('',#1485);
#513=VERTEX_POINT('',#1487);
#514=VERTEX_POINT('',#1489);
#515=VERTEX_POINT('',#1491);
#516=VERTEX_POINT('',#1493);
#517=VERTEX_POINT('',#1495);
#518=VERTEX_POINT('',#1497);
#519=VERTEX_POINT('',#1500);
#520=VERTEX_POINT('',#1502);
#521=VERTEX_POINT('',#1504);
#522=VERTEX_POINT('',#1507);
#523=VERTEX_POINT('',#1508);
#524=VERTEX_POINT('',#1513);
#525=VERTEX_POINT('',#1514);
#526=VERTEX_POINT('',#1519);
#527=VERTEX_POINT('',#1521);
#528=VERTEX_POINT('',#1525);
#529=VERTEX_POINT('',#1526);
#530=VERTEX_POINT('',#1531);
#531=VERTEX_POINT('',#1532);
#532=VERTEX_POINT('',#1534);
#533=VERTEX_POINT('',#1536);
#534=VERTEX_POINT('',#1538);
#535=VERTEX_POINT('',#1540);
#536=VERTEX_POINT('',#1542);
#537=VERTEX_POINT('',#1544);
#538=VERTEX_POINT('',#1552);
#539=VERTEX_POINT('',#1554);
#540=VERTEX_POINT('',#1556);
#541=VERTEX_POINT('',#1558);
#542=VERTEX_POINT('',#1560);
#543=VERTEX_POINT('',#1562);
#544=VERTEX_POINT('',#1563);
#545=VERTEX_POINT('',#1565);
#546=VERTEX_POINT('',#1567);
#547=VERTEX_POINT('',#1569);
#548=VERTEX_POINT('',#1571);
#549=VERTEX_POINT('',#1573);
#550=VERTEX_POINT('',#1575);
#551=VERTEX_POINT('',#1579);
#552=VERTEX_POINT('',#1581);
#553=VERTEX_POINT('',#1585);
#554=VERTEX_POINT('',#1587);
#555=VERTEX_POINT('',#1591);
#556=VERTEX_POINT('',#1593);
#557=VERTEX_POINT('',#1597);
#558=VERTEX_POINT('',#1599);
#559=VERTEX_POINT('',#1636);
#560=VERTEX_POINT('',#1645);
#561=VERTEX_POINT('',#1654);
#562=VERTEX_POINT('',#1663);
#563=LINE('',#1394,#647);
#564=LINE('',#1397,#648);
#565=LINE('',#1399,#649);
#566=LINE('',#1401,#650);
#567=LINE('',#1416,#651);
#568=LINE('',#1417,#652);
#569=LINE('',#1421,#653);
#570=LINE('',#1423,#654);
#571=LINE('',#1425,#655);
#572=LINE('',#1429,#656);
#573=LINE('',#1431,#657);
#574=LINE('',#1433,#658);
#575=LINE('',#1437,#659);
#576=LINE('',#1439,#660);
#577=LINE('',#1441,#661);
#578=LINE('',#1443,#662);
#579=LINE('',#1446,#663);
#580=LINE('',#1447,#664);
#581=LINE('',#1449,#665);
#582=LINE('',#1452,#666);
#583=LINE('',#1453,#667);
#584=LINE('',#1455,#668);
#585=LINE('',#1457,#669);
#586=LINE('',#1459,#670);
#587=LINE('',#1461,#671);
#588=LINE('',#1463,#672);
#589=LINE('',#1467,#673);
#590=LINE('',#1468,#674);
#591=LINE('',#1472,#675);
#592=LINE('',#1473,#676);
#593=LINE('',#1477,#677);
#594=LINE('',#1478,#678);
#595=LINE('',#1483,#679);
#596=LINE('',#1488,#680);
#597=LINE('',#1492,#681);
#598=LINE('',#1496,#682);
#599=LINE('',#1506,#683);
#600=LINE('',#1509,#684);
#601=LINE('',#1510,#685);
#602=LINE('',#1512,#686);
#603=LINE('',#1515,#687);
#604=LINE('',#1516,#688);
#605=LINE('',#1518,#689);
#606=LINE('',#1520,#690);
#607=LINE('',#1522,#691);
#608=LINE('',#1524,#692);
#609=LINE('',#1527,#693);
#610=LINE('',#1528,#694);
#611=LINE('',#1530,#695);
#612=LINE('',#1535,#696);
#613=LINE('',#1539,#697);
#614=LINE('',#1543,#698);
#615=LINE('',#1561,#699);
#616=LINE('',#1566,#700);
#617=LINE('',#1570,#701);
#618=LINE('',#1574,#702);
#619=LINE('',#1578,#703);
#620=LINE('',#1580,#704);
#621=LINE('',#1582,#705);
#622=LINE('',#1584,#706);
#623=LINE('',#1586,#707);
#624=LINE('',#1588,#708);
#625=LINE('',#1590,#709);
#626=LINE('',#1592,#710);
#627=LINE('',#1594,#711);
#628=LINE('',#1596,#712);
#629=LINE('',#1598,#713);
#630=LINE('',#1600,#714);
#631=LINE('',#1614,#715);
#632=LINE('',#1615,#716);
#633=LINE('',#1617,#717);
#634=LINE('',#1619,#718);
#635=LINE('',#1621,#719);
#636=LINE('',#1623,#720);
#637=LINE('',#1625,#721);
#638=LINE('',#1627,#722);
#639=LINE('',#1630,#723);
#640=LINE('',#1632,#724);
#641=LINE('',#1639,#725);
#642=LINE('',#1641,#726);
#643=LINE('',#1648,#727);
#644=LINE('',#1650,#728);
#645=LINE('',#1657,#729);
#646=LINE('',#1659,#730);
#647=VECTOR('',#1104,1.);
#648=VECTOR('',#1105,1.);
#649=VECTOR('',#1106,1.);
#650=VECTOR('',#1107,1.);
#651=VECTOR('',#1122,1.);
#652=VECTOR('',#1123,1.);
#653=VECTOR('',#1126,1.);
#654=VECTOR('',#1127,1.);
#655=VECTOR('',#1128,1.);
#656=VECTOR('',#1131,1.);
#657=VECTOR('',#1132,1.);
#658=VECTOR('',#1133,1.);
#659=VECTOR('',#1136,1.);
#660=VECTOR('',#1137,1.);
#661=VECTOR('',#1138,1.);
#662=VECTOR('',#1141,1.);
#663=VECTOR('',#1142,1.);
#664=VECTOR('',#1143,1.);
#665=VECTOR('',#1146,1.);
#666=VECTOR('',#1147,1.);
#667=VECTOR('',#1148,1.);
#668=VECTOR('',#1151,1.);
#669=VECTOR('',#1152,1.);
#670=VECTOR('',#1153,1.);
#671=VECTOR('',#1156,1.);
#672=VECTOR('',#1157,1.);
#673=VECTOR('',#1160,1.);
#674=VECTOR('',#1161,1.);
#675=VECTOR('',#1164,1.);
#676=VECTOR('',#1165,1.);
#677=VECTOR('',#1168,1.);
#678=VECTOR('',#1169,1.);
#679=VECTOR('',#1174,1.);
#680=VECTOR('',#1177,1.);
#681=VECTOR('',#1180,1.);
#682=VECTOR('',#1183,1.);
#683=VECTOR('',#1194,1.);
#684=VECTOR('',#1195,1.);
#685=VECTOR('',#1196,1.);
#686=VECTOR('',#1199,1.);
#687=VECTOR('',#1200,1.);
#688=VECTOR('',#1201,1.);
#689=VECTOR('',#1204,1.);
#690=VECTOR('',#1205,1.);
#691=VECTOR('',#1206,1.);
#692=VECTOR('',#1209,1.);
#693=VECTOR('',#1210,1.);
#694=VECTOR('',#1211,1.);
#695=VECTOR('',#1214,1.);
#696=VECTOR('',#1217,1.);
#697=VECTOR('',#1220,1.);
#698=VECTOR('',#1223,1.);
#699=VECTOR('',#1246,1.);
#700=VECTOR('',#1249,1.);
#701=VECTOR('',#1252,1.);
#702=VECTOR('',#1255,1.);
#703=VECTOR('',#1260,1.);
#704=VECTOR('',#1261,1.);
#705=VECTOR('',#1262,1.);
#706=VECTOR('',#1265,1.);
#707=VECTOR('',#1266,1.);
#708=VECTOR('',#1267,1.);
#709=VECTOR('',#1270,1.);
#710=VECTOR('',#1271,1.);
#711=VECTOR('',#1272,1.);
#712=VECTOR('',#1275,1.);
#713=VECTOR('',#1276,1.);
#714=VECTOR('',#1277,1.);
#715=VECTOR('',#1304,1.);
#716=VECTOR('',#1305,1.);
#717=VECTOR('',#1308,1.);
#718=VECTOR('',#1311,1.);
#719=VECTOR('',#1314,1.);
#720=VECTOR('',#1317,1.);
#721=VECTOR('',#1320,1.);
#722=VECTOR('',#1323,1.);
#723=VECTOR('',#1328,1.);
#724=VECTOR('',#1331,1.);
#725=VECTOR('',#1342,1.);
#726=VECTOR('',#1345,1.);
#727=VECTOR('',#1356,1.);
#728=VECTOR('',#1359,1.);
#729=VECTOR('',#1370,1.);
#730=VECTOR('',#1373,1.);
#731=EDGE_LOOP('',(#83,#84,#85,#86));
#732=EDGE_LOOP('',(#87));
#733=EDGE_LOOP('',(#88));
#734=EDGE_LOOP('',(#89));
#735=EDGE_LOOP('',(#90));
#736=EDGE_LOOP('',(#91));
#737=EDGE_LOOP('',(#92,#93,#94,#95,#96,#97,#98,#99,#100,#101,#102,#103,
#104,#105,#106,#107));
#738=EDGE_LOOP('',(#108,#109,#110,#111));
#739=EDGE_LOOP('',(#112,#113,#114,#115));
#740=EDGE_LOOP('',(#116,#117,#118,#119));
#741=EDGE_LOOP('',(#120,#121,#122,#123,#124,#125,#126,#127,#128,#129,#130,
#131,#132,#133,#134,#135));
#742=EDGE_LOOP('',(#136));
#743=EDGE_LOOP('',(#137,#138,#139,#140,#141,#142,#143,#144));
#744=EDGE_LOOP('',(#145));
#745=EDGE_LOOP('',(#146));
#746=EDGE_LOOP('',(#147));
#747=EDGE_LOOP('',(#148,#149,#150,#151));
#748=EDGE_LOOP('',(#152,#153,#154,#155));
#749=EDGE_LOOP('',(#156,#157,#158,#159));
#750=EDGE_LOOP('',(#160,#161,#162,#163));
#751=EDGE_LOOP('',(#164,#165,#166,#167,#168,#169,#170,#171));
#752=EDGE_LOOP('',(#172,#173,#174,#175,#176,#177,#178,#179));
#753=EDGE_LOOP('',(#180));
#754=EDGE_LOOP('',(#181));
#755=EDGE_LOOP('',(#182));
#756=EDGE_LOOP('',(#183));
#757=EDGE_LOOP('',(#184));
#758=EDGE_LOOP('',(#185,#186,#187,#188,#189,#190,#191,#192));
#759=EDGE_LOOP('',(#193,#194,#195,#196));
#760=EDGE_LOOP('',(#197,#198,#199,#200));
#761=EDGE_LOOP('',(#201,#202,#203,#204));
#762=EDGE_LOOP('',(#205,#206,#207,#208));
#763=EDGE_LOOP('',(#209,#210,#211,#212));
#764=EDGE_LOOP('',(#213,#214,#215,#216));
#765=EDGE_LOOP('',(#217,#218,#219,#220));
#766=EDGE_LOOP('',(#221,#222,#223,#224));
#767=EDGE_LOOP('',(#225,#226,#227,#228));
#768=EDGE_LOOP('',(#229,#230,#231,#232));
#769=EDGE_LOOP('',(#233,#234,#235,#236));
#770=EDGE_LOOP('',(#237,#238,#239,#240));
#771=EDGE_LOOP('',(#241,#242,#243,#244));
#772=EDGE_LOOP('',(#245,#246,#247,#248));
#773=EDGE_LOOP('',(#249,#250,#251,#252));
#774=EDGE_LOOP('',(#253,#254,#255,#256));
#775=EDGE_LOOP('',(#257,#258,#259,#260));
#776=EDGE_LOOP('',(#261,#262,#263,#264));
#777=EDGE_LOOP('',(#265,#266,#267,#268));
#778=EDGE_LOOP('',(#269,#270,#271,#272));
#779=EDGE_LOOP('',(#273,#274,#275,#276));
#780=EDGE_LOOP('',(#277,#278,#279,#280));
#781=EDGE_LOOP('',(#281,#282,#283,#284));
#782=EDGE_LOOP('',(#285));
#783=EDGE_LOOP('',(#286));
#784=EDGE_LOOP('',(#287));
#785=EDGE_LOOP('',(#288,#289,#290,#291));
#786=EDGE_LOOP('',(#292,#293,#294,#295));
#787=EDGE_LOOP('',(#296,#297,#298,#299));
#788=EDGE_LOOP('',(#300));
#789=EDGE_LOOP('',(#301));
#790=EDGE_LOOP('',(#302));
#791=EDGE_LOOP('',(#303,#304,#305,#306));
#792=EDGE_LOOP('',(#307,#308,#309,#310));
#793=EDGE_LOOP('',(#311,#312,#313,#314));
#794=EDGE_LOOP('',(#315));
#795=EDGE_LOOP('',(#316));
#796=EDGE_LOOP('',(#317));
#797=EDGE_LOOP('',(#318,#319,#320,#321));
#798=EDGE_LOOP('',(#322,#323,#324,#325));
#799=EDGE_LOOP('',(#326,#327,#328,#329));
#800=EDGE_LOOP('',(#330));
#801=EDGE_LOOP('',(#331));
#802=EDGE_LOOP('',(#332));
#803=EDGE_LOOP('',(#333));
#804=EDGE_LOOP('',(#334));
#805=EDGE_LOOP('',(#335));
#806=EDGE_LOOP('',(#336));
#807=EDGE_LOOP('',(#337));
#808=EDGE_LOOP('',(#338));
#809=EDGE_LOOP('',(#339));
#810=EDGE_LOOP('',(#340));
#811=EDGE_LOOP('',(#341));
#812=EDGE_LOOP('',(#342));
#813=FACE_BOUND('',#731,.T.);
#814=FACE_BOUND('',#732,.T.);
#815=FACE_BOUND('',#733,.T.);
#816=FACE_BOUND('',#734,.T.);
#817=FACE_BOUND('',#735,.T.);
#818=FACE_BOUND('',#736,.T.);
#819=FACE_BOUND('',#737,.T.);
#820=FACE_BOUND('',#738,.T.);
#821=FACE_BOUND('',#739,.T.);
#822=FACE_BOUND('',#740,.T.);
#823=FACE_BOUND('',#741,.T.);
#824=FACE_BOUND('',#742,.T.);
#825=FACE_BOUND('',#743,.T.);
#826=FACE_BOUND('',#744,.T.);
#827=FACE_BOUND('',#745,.T.);
#828=FACE_BOUND('',#746,.T.);
#829=FACE_BOUND('',#747,.T.);
#830=FACE_BOUND('',#748,.T.);
#831=FACE_BOUND('',#749,.T.);
#832=FACE_BOUND('',#750,.T.);
#833=FACE_BOUND('',#751,.T.);
#834=FACE_BOUND('',#752,.T.);
#835=FACE_BOUND('',#753,.T.);
#836=FACE_BOUND('',#754,.T.);
#837=FACE_BOUND('',#755,.T.);
#838=FACE_BOUND('',#756,.T.);
#839=FACE_BOUND('',#757,.T.);
#840=FACE_BOUND('',#758,.T.);
#841=FACE_BOUND('',#759,.T.);
#842=FACE_BOUND('',#760,.T.);
#843=FACE_BOUND('',#761,.T.);
#844=FACE_BOUND('',#762,.T.);
#845=FACE_BOUND('',#763,.T.);
#846=FACE_BOUND('',#764,.T.);
#847=FACE_BOUND('',#765,.T.);
#848=FACE_BOUND('',#766,.T.);
#849=FACE_BOUND('',#767,.T.);
#850=FACE_BOUND('',#768,.T.);
#851=FACE_BOUND('',#769,.T.);
#852=FACE_BOUND('',#770,.T.);
#853=FACE_BOUND('',#771,.T.);
#854=FACE_BOUND('',#772,.T.);
#855=FACE_BOUND('',#773,.T.);
#856=FACE_BOUND('',#774,.T.);
#857=FACE_BOUND('',#775,.T.);
#858=FACE_BOUND('',#776,.T.);
#859=FACE_BOUND('',#777,.T.);
#860=FACE_BOUND('',#778,.T.);
#861=FACE_BOUND('',#779,.T.);
#862=FACE_BOUND('',#780,.T.);
#863=FACE_BOUND('',#781,.T.);
#864=FACE_BOUND('',#782,.T.);
#865=FACE_BOUND('',#783,.T.);
#866=FACE_BOUND('',#784,.T.);
#867=FACE_BOUND('',#785,.T.);
#868=FACE_BOUND('',#786,.T.);
#869=FACE_BOUND('',#787,.T.);
#870=FACE_BOUND('',#788,.T.);
#871=FACE_BOUND('',#789,.T.);
#872=FACE_BOUND('',#790,.T.);
#873=FACE_BOUND('',#791,.T.);
#874=FACE_BOUND('',#792,.T.);
#875=FACE_BOUND('',#793,.T.);
#876=FACE_BOUND('',#794,.T.);
#877=FACE_BOUND('',#795,.T.);
#878=FACE_BOUND('',#796,.T.);
#879=FACE_BOUND('',#797,.T.);
#880=FACE_BOUND('',#798,.T.);
#881=FACE_BOUND('',#799,.T.);
#882=FACE_BOUND('',#800,.T.);
#883=FACE_BOUND('',#801,.T.);
#884=FACE_BOUND('',#802,.T.);
#885=FACE_BOUND('',#803,.T.);
#886=FACE_BOUND('',#804,.T.);
#887=FACE_BOUND('',#805,.T.);
#888=FACE_BOUND('',#806,.T.);
#889=FACE_BOUND('',#807,.T.);
#890=FACE_BOUND('',#808,.T.);
#891=FACE_BOUND('',#809,.T.);
#892=FACE_BOUND('',#810,.T.);
#893=FACE_BOUND('',#811,.T.);
#894=FACE_BOUND('',#812,.T.);
#895=PLANE('',#997);
#896=PLANE('',#998);
#897=PLANE('',#1008);
#898=PLANE('',#1009);
#899=PLANE('',#1010);
#900=PLANE('',#1011);
#901=PLANE('',#1024);
#902=PLANE('',#1025);
#903=PLANE('',#1026);
#904=PLANE('',#1027);
#905=PLANE('',#1028);
#906=PLANE('',#1037);
#907=PLANE('',#1047);
#908=PLANE('',#1048);
#909=PLANE('',#1049);
#910=PLANE('',#1050);
#911=PLANE('',#1063);
#912=PLANE('',#1066);
#913=PLANE('',#1067);
#914=PLANE('',#1070);
#915=PLANE('',#1071);
#916=PLANE('',#1072);
#917=PLANE('',#1076);
#918=PLANE('',#1077);
#919=PLANE('',#1078);
#920=PLANE('',#1082);
#921=PLANE('',#1083);
#922=PLANE('',#1084);
#923=PLANE('',#1088);
#924=PLANE('',#1089);
#925=PLANE('',#1090);
#926=PLANE('',#1094);
#927=ADVANCED_FACE('',(#813),#895,.F.);
#928=ADVANCED_FACE('',(#814,#815,#816,#817,#818,#819),#896,.F.);
#929=ADVANCED_FACE('',(#820),#897,.T.);
#930=ADVANCED_FACE('',(#821),#898,.F.);
#931=ADVANCED_FACE('',(#822),#899,.T.);
#932=ADVANCED_FACE('',(#823,#824,#825,#826,#827,#828),#900,.F.);
#933=ADVANCED_FACE('',(#829),#901,.T.);
#934=ADVANCED_FACE('',(#830),#902,.T.);
#935=ADVANCED_FACE('',(#831),#903,.F.);
#936=ADVANCED_FACE('',(#832),#904,.F.);
#937=ADVANCED_FACE('',(#833,#834),#905,.F.);
#938=ADVANCED_FACE('',(#835,#836,#837,#838,#839,#840),#906,.T.);
#939=ADVANCED_FACE('',(#841),#907,.F.);
#940=ADVANCED_FACE('',(#842),#908,.F.);
#941=ADVANCED_FACE('',(#843),#909,.T.);
#942=ADVANCED_FACE('',(#844),#910,.T.);
#943=ADVANCED_FACE('',(#845),#16,.F.);
#944=ADVANCED_FACE('',(#846),#17,.F.);
#945=ADVANCED_FACE('',(#847),#18,.F.);
#946=ADVANCED_FACE('',(#848),#19,.F.);
#947=ADVANCED_FACE('',(#849),#20,.T.);
#948=ADVANCED_FACE('',(#850),#21,.T.);
#949=ADVANCED_FACE('',(#851),#22,.T.);
#950=ADVANCED_FACE('',(#852),#23,.T.);
#951=ADVANCED_FACE('',(#853),#911,.F.);
#952=ADVANCED_FACE('',(#854),#12,.T.);
#953=ADVANCED_FACE('',(#855),#13,.T.);
#954=ADVANCED_FACE('',(#856),#912,.T.);
#955=ADVANCED_FACE('',(#857),#913,.F.);
#956=ADVANCED_FACE('',(#858),#14,.T.);
#957=ADVANCED_FACE('',(#859),#15,.T.);
#958=ADVANCED_FACE('',(#860),#914,.T.);
#959=ADVANCED_FACE('',(#861),#915,.T.);
#960=ADVANCED_FACE('',(#862),#916,.F.);
#961=ADVANCED_FACE('',(#863),#24,.T.);
#962=ADVANCED_FACE('',(#864,#865),#25,.F.);
#963=ADVANCED_FACE('',(#866),#917,.F.);
#964=ADVANCED_FACE('',(#867),#918,.T.);
#965=ADVANCED_FACE('',(#868),#919,.F.);
#966=ADVANCED_FACE('',(#869),#26,.T.);
#967=ADVANCED_FACE('',(#870,#871),#27,.F.);
#968=ADVANCED_FACE('',(#872),#920,.F.);
#969=ADVANCED_FACE('',(#873),#921,.T.);
#970=ADVANCED_FACE('',(#874),#922,.F.);
#971=ADVANCED_FACE('',(#875),#28,.T.);
#972=ADVANCED_FACE('',(#876,#877),#29,.F.);
#973=ADVANCED_FACE('',(#878),#923,.F.);
#974=ADVANCED_FACE('',(#879),#924,.T.);
#975=ADVANCED_FACE('',(#880),#925,.F.);
#976=ADVANCED_FACE('',(#881),#30,.T.);
#977=ADVANCED_FACE('',(#882,#883),#31,.F.);
#978=ADVANCED_FACE('',(#884),#926,.F.);
#979=ADVANCED_FACE('',(#885,#886),#32,.F.);
#980=ADVANCED_FACE('',(#887,#888),#33,.F.);
#981=ADVANCED_FACE('',(#889,#890),#34,.F.);
#982=ADVANCED_FACE('',(#891,#892),#35,.F.);
#983=ADVANCED_FACE('',(#893,#894),#36,.F.);
#984=CLOSED_SHELL('',(#927,#928,#929,#930,#931,#932,#933,#934,#935,#936,
#937,#938,#939,#940,#941,#942,#943,#944,#945,#946,#947,#948,#949,#950,#951,
#952,#953,#954,#955,#956,#957,#958,#959,#960,#961,#962,#963,#964,#965,#966,
#967,#968,#969,#970,#971,#972,#973,#974,#975,#976,#977,#978,#979,#980,#981,
#982,#983));
#985=STYLED_ITEM('',(#986),#993);
#986=PRESENTATION_STYLE_ASSIGNMENT((#987));
#987=SURFACE_STYLE_USAGE(.BOTH.,#988);
#988=SURFACE_SIDE_STYLE('',(#989));
#989=SURFACE_STYLE_FILL_AREA(#990);
#990=FILL_AREA_STYLE('',(#991));
#991=FILL_AREA_STYLE_COLOUR('',#992);
#992=COLOUR_RGB('',0.501960784313726,0.501960784313726,0.501960784313726);
#993=MANIFOLD_SOLID_BREP('Top',#984);
#994=SHAPE_DEFINITION_REPRESENTATION(#1676,#995);
#995=SHAPE_REPRESENTATION('Top',(#996),#1671);
#996=AXIS2_PLACEMENT_3D('',#1392,#1100,#1101);
#997=AXIS2_PLACEMENT_3D('',#1393,#1102,#1103);
#998=AXIS2_PLACEMENT_3D('',#1402,#1108,#1109);
#999=AXIS2_PLACEMENT_3D('',#1403,#1110,#1111);
#1000=AXIS2_PLACEMENT_3D('',#1405,#1112,#1113);
#1001=AXIS2_PLACEMENT_3D('',#1407,#1114,#1115);
#1002=AXIS2_PLACEMENT_3D('',#1409,#1116,#1117);
#1003=AXIS2_PLACEMENT_3D('',#1411,#1118,#1119);
#1004=AXIS2_PLACEMENT_3D('',#1413,#1120,#1121);
#1005=AXIS2_PLACEMENT_3D('',#1419,#1124,#1125);
#1006=AXIS2_PLACEMENT_3D('',#1427,#1129,#1130);
#1007=AXIS2_PLACEMENT_3D('',#1435,#1134,#1135);
#1008=AXIS2_PLACEMENT_3D('',#1442,#1139,#1140);
#1009=AXIS2_PLACEMENT_3D('',#1448,#1144,#1145);
#1010=AXIS2_PLACEMENT_3D('',#1454,#1149,#1150);
#1011=AXIS2_PLACEMENT_3D('',#1460,#1154,#1155);
#1012=AXIS2_PLACEMENT_3D('',#1465,#1158,#1159);
#1013=AXIS2_PLACEMENT_3D('',#1470,#1162,#1163);
#1014=AXIS2_PLACEMENT_3D('',#1475,#1166,#1167);
#1015=AXIS2_PLACEMENT_3D('',#1480,#1170,#1171);
#1016=AXIS2_PLACEMENT_3D('',#1481,#1172,#1173);
#1017=AXIS2_PLACEMENT_3D('',#1486,#1175,#1176);
#1018=AXIS2_PLACEMENT_3D('',#1490,#1178,#1179);
#1019=AXIS2_PLACEMENT_3D('',#1494,#1181,#1182);
#1020=AXIS2_PLACEMENT_3D('',#1498,#1184,#1185);
#1021=AXIS2_PLACEMENT_3D('',#1499,#1186,#1187);
#1022=AXIS2_PLACEMENT_3D('',#1501,#1188,#1189);
#1023=AXIS2_PLACEMENT_3D('',#1503,#1190,#1191);
#1024=AXIS2_PLACEMENT_3D('',#1505,#1192,#1193);
#1025=AXIS2_PLACEMENT_3D('',#1511,#1197,#1198);
#1026=AXIS2_PLACEMENT_3D('',#1517,#1202,#1203);
#1027=AXIS2_PLACEMENT_3D('',#1523,#1207,#1208);
#1028=AXIS2_PLACEMENT_3D('',#1529,#1212,#1213);
#1029=AXIS2_PLACEMENT_3D('',#1533,#1215,#1216);
#1030=AXIS2_PLACEMENT_3D('',#1537,#1218,#1219);
#1031=AXIS2_PLACEMENT_3D('',#1541,#1221,#1222);
#1032=AXIS2_PLACEMENT_3D('',#1545,#1224,#1225);
#1033=AXIS2_PLACEMENT_3D('',#1546,#1226,#1227);
#1034=AXIS2_PLACEMENT_3D('',#1547,#1228,#1229);
#1035=AXIS2_PLACEMENT_3D('',#1548,#1230,#1231);
#1036=AXIS2_PLACEMENT_3D('',#1549,#1232,#1233);
#1037=AXIS2_PLACEMENT_3D('',#1550,#1234,#1235);
#1038=AXIS2_PLACEMENT_3D('',#1551,#1236,#1237);
#1039=AXIS2_PLACEMENT_3D('',#1553,#1238,#1239);
#1040=AXIS2_PLACEMENT_3D('',#1555,#1240,#1241);
#1041=AXIS2_PLACEMENT_3D('',#1557,#1242,#1243);
#1042=AXIS2_PLACEMENT_3D('',#1559,#1244,#1245);
#1043=AXIS2_PLACEMENT_3D('',#1564,#1247,#1248);
#1044=AXIS2_PLACEMENT_3D('',#1568,#1250,#1251);
#1045=AXIS2_PLACEMENT_3D('',#1572,#1253,#1254);
#1046=AXIS2_PLACEMENT_3D('',#1576,#1256,#1257);
#1047=AXIS2_PLACEMENT_3D('',#1577,#1258,#1259);
#1048=AXIS2_PLACEMENT_3D('',#1583,#1263,#1264);
#1049=AXIS2_PLACEMENT_3D('',#1589,#1268,#1269);
#1050=AXIS2_PLACEMENT_3D('',#1595,#1273,#1274);
#1051=AXIS2_PLACEMENT_3D('',#1601,#1278,#1279);
#1052=AXIS2_PLACEMENT_3D('',#1602,#1280,#1281);
#1053=AXIS2_PLACEMENT_3D('',#1603,#1282,#1283);
#1054=AXIS2_PLACEMENT_3D('',#1604,#1284,#1285);
#1055=AXIS2_PLACEMENT_3D('',#1605,#1286,#1287);
#1056=AXIS2_PLACEMENT_3D('',#1606,#1288,#1289);
#1057=AXIS2_PLACEMENT_3D('',#1607,#1290,#1291);
#1058=AXIS2_PLACEMENT_3D('',#1608,#1292,#1293);
#1059=AXIS2_PLACEMENT_3D('',#1609,#1294,#1295);
#1060=AXIS2_PLACEMENT_3D('',#1610,#1296,#1297);
#1061=AXIS2_PLACEMENT_3D('',#1611,#1298,#1299);
#1062=AXIS2_PLACEMENT_3D('',#1612,#1300,#1301);
#1063=AXIS2_PLACEMENT_3D('',#1613,#1302,#1303);
#1064=AXIS2_PLACEMENT_3D('',#1616,#1306,#1307);
#1065=AXIS2_PLACEMENT_3D('',#1618,#1309,#1310);
#1066=AXIS2_PLACEMENT_3D('',#1620,#1312,#1313);
#1067=AXIS2_PLACEMENT_3D('',#1622,#1315,#1316);
#1068=AXIS2_PLACEMENT_3D('',#1624,#1318,#1319);
#1069=AXIS2_PLACEMENT_3D('',#1626,#1321,#1322);
#1070=AXIS2_PLACEMENT_3D('',#1628,#1324,#1325);
#1071=AXIS2_PLACEMENT_3D('',#1629,#1326,#1327);
#1072=AXIS2_PLACEMENT_3D('',#1631,#1329,#1330);
#1073=AXIS2_PLACEMENT_3D('',#1633,#1332,#1333);
#1074=AXIS2_PLACEMENT_3D('',#1634,#1334,#1335);
#1075=AXIS2_PLACEMENT_3D('',#1635,#1336,#1337);
#1076=AXIS2_PLACEMENT_3D('',#1637,#1338,#1339);
#1077=AXIS2_PLACEMENT_3D('',#1638,#1340,#1341);
#1078=AXIS2_PLACEMENT_3D('',#1640,#1343,#1344);
#1079=AXIS2_PLACEMENT_3D('',#1642,#1346,#1347);
#1080=AXIS2_PLACEMENT_3D('',#1643,#1348,#1349);
#1081=AXIS2_PLACEMENT_3D('',#1644,#1350,#1351);
#1082=AXIS2_PLACEMENT_3D('',#1646,#1352,#1353);
#1083=AXIS2_PLACEMENT_3D('',#1647,#1354,#1355);
#1084=AXIS2_PLACEMENT_3D('',#1649,#1357,#1358);
#1085=AXIS2_PLACEMENT_3D('',#1651,#1360,#1361);
#1086=AXIS2_PLACEMENT_3D('',#1652,#1362,#1363);
#1087=AXIS2_PLACEMENT_3D('',#1653,#1364,#1365);
#1088=AXIS2_PLACEMENT_3D('',#1655,#1366,#1367);
#1089=AXIS2_PLACEMENT_3D('',#1656,#1368,#1369);
#1090=AXIS2_PLACEMENT_3D('',#1658,#1371,#1372);
#1091=AXIS2_PLACEMENT_3D('',#1660,#1374,#1375);
#1092=AXIS2_PLACEMENT_3D('',#1661,#1376,#1377);
#1093=AXIS2_PLACEMENT_3D('',#1662,#1378,#1379);
#1094=AXIS2_PLACEMENT_3D('',#1664,#1380,#1381);
#1095=AXIS2_PLACEMENT_3D('',#1665,#1382,#1383);
#1096=AXIS2_PLACEMENT_3D('',#1666,#1384,#1385);
#1097=AXIS2_PLACEMENT_3D('',#1667,#1386,#1387);
#1098=AXIS2_PLACEMENT_3D('',#1668,#1388,#1389);
#1099=AXIS2_PLACEMENT_3D('',#1669,#1390,#1391);
#1100=DIRECTION('',(0.,0.,1.));
#1101=DIRECTION('',(1.,0.,0.));
#1102=DIRECTION('',(0.,-1.,0.));
#1103=DIRECTION('',(0.,0.,-1.));
#1104=DIRECTION('',(0.,0.,1.));
#1105=DIRECTION('',(-1.,0.,0.));
#1106=DIRECTION('',(0.,0.,1.));
#1107=DIRECTION('',(-1.,0.,0.));
#1108=DIRECTION('',(0.,0.,1.));
#1109=DIRECTION('',(1.,0.,0.));
#1110=DIRECTION('',(0.,0.,1.));
#1111=DIRECTION('',(1.,0.,0.));
#1112=DIRECTION('',(0.,0.,1.));
#1113=DIRECTION('',(6.12323399573677E-17,1.,0.));
#1114=DIRECTION('',(0.,0.,1.));
#1115=DIRECTION('',(-1.,1.22464679914735E-16,0.));
#1116=DIRECTION('',(0.,0.,1.));
#1117=DIRECTION('',(-1.83697019872103E-16,-1.,0.));
#1118=DIRECTION('',(0.,0.,1.));
#1119=DIRECTION('',(1.,0.,0.));
#1120=DIRECTION('',(0.,0.,1.));
#1121=DIRECTION('',(-1.,0.,0.));
#1122=DIRECTION('',(0.,-1.,0.));
#1123=DIRECTION('',(0.,-1.,0.));
#1124=DIRECTION('',(0.,0.,-1.));
#1125=DIRECTION('',(1.,0.,0.));
#1126=DIRECTION('',(-1.,0.,0.));
#1127=DIRECTION('',(0.,-1.,0.));
#1128=DIRECTION('',(-1.,0.,0.));
#1129=DIRECTION('',(0.,0.,1.));
#1130=DIRECTION('',(1.,0.,0.));
#1131=DIRECTION('',(0.,1.,0.));
#1132=DIRECTION('',(-1.,0.,0.));
#1133=DIRECTION('',(0.,1.,0.));
#1134=DIRECTION('',(0.,0.,-1.));
#1135=DIRECTION('',(-1.,0.,0.));
#1136=DIRECTION('',(1.,0.,0.));
#1137=DIRECTION('',(0.,-1.,0.));
#1138=DIRECTION('',(1.,0.,0.));
#1139=DIRECTION('',(0.,-1.,0.));
#1140=DIRECTION('',(0.,0.,-1.));
#1141=DIRECTION('',(-1.,0.,0.));
#1142=DIRECTION('',(0.,0.,1.));
#1143=DIRECTION('',(0.,0.,1.));
#1144=DIRECTION('',(1.,0.,0.));
#1145=DIRECTION('',(0.,0.,-1.));
#1146=DIRECTION('',(0.,-1.,0.));
#1147=DIRECTION('',(0.,0.,1.));
#1148=DIRECTION('',(0.,0.,1.));
#1149=DIRECTION('',(1.,0.,0.));
#1150=DIRECTION('',(0.,0.,-1.));
#1151=DIRECTION('',(0.,0.,1.));
#1152=DIRECTION('',(0.,-1.,0.));
#1153=DIRECTION('',(0.,0.,1.));
#1154=DIRECTION('',(0.,0.,1.));
#1155=DIRECTION('',(1.,0.,0.));
#1156=DIRECTION('',(1.,0.,0.));
#1157=DIRECTION('',(1.,0.,0.));
#1158=DIRECTION('',(0.,0.,-1.));
#1159=DIRECTION('',(-1.,0.,0.));
#1160=DIRECTION('',(0.,1.,0.));
#1161=DIRECTION('',(0.,1.,0.));
#1162=DIRECTION('',(0.,0.,1.));
#1163=DIRECTION('',(1.,0.,0.));
#1164=DIRECTION('',(-1.,0.,0.));
#1165=DIRECTION('',(-1.,0.,0.));
#1166=DIRECTION('',(0.,0.,-1.));
#1167=DIRECTION('',(1.,0.,0.));
#1168=DIRECTION('',(0.,-1.,0.));
#1169=DIRECTION('',(0.,-1.,0.));
#1170=DIRECTION('',(0.,0.,1.));
#1171=DIRECTION('',(-1.,0.,0.));
#1172=DIRECTION('',(0.,0.,-1.));
#1173=DIRECTION('',(-1.,0.,0.));
#1174=DIRECTION('',(-1.,0.,0.));
#1175=DIRECTION('',(0.,0.,1.));
#1176=DIRECTION('',(1.,0.,0.));
#1177=DIRECTION('',(0.,-1.,0.));
#1178=DIRECTION('',(0.,0.,1.));
#1179=DIRECTION('',(1.,0.,0.));
#1180=DIRECTION('',(-1.,0.,0.));
#1181=DIRECTION('',(0.,0.,1.));
#1182=DIRECTION('',(1.,0.,0.));
#1183=DIRECTION('',(0.,-1.,0.));
#1184=DIRECTION('',(0.,0.,1.));
#1185=DIRECTION('',(1.,0.,0.));
#1186=DIRECTION('',(0.,0.,1.));
#1187=DIRECTION('',(1.,0.,0.));
#1188=DIRECTION('',(0.,0.,-1.));
#1189=DIRECTION('',(1.,0.,0.));
#1190=DIRECTION('',(0.,0.,1.));
#1191=DIRECTION('',(-1.,0.,0.));
#1192=DIRECTION('',(1.,0.,0.));
#1193=DIRECTION('',(0.,0.,-1.));
#1194=DIRECTION('',(0.,-1.,0.));
#1195=DIRECTION('',(0.,0.,-1.));
#1196=DIRECTION('',(0.,0.,-1.));
#1197=DIRECTION('',(0.,-1.,0.));
#1198=DIRECTION('',(0.,0.,-1.));
#1199=DIRECTION('',(-1.,0.,0.));
#1200=DIRECTION('',(0.,0.,-1.));
#1201=DIRECTION('',(0.,0.,-1.));
#1202=DIRECTION('',(1.,0.,0.));
#1203=DIRECTION('',(0.,0.,-1.));
#1204=DIRECTION('',(0.,0.,-1.));
#1205=DIRECTION('',(0.,-1.,0.));
#1206=DIRECTION('',(0.,0.,-1.));
#1207=DIRECTION('',(0.,-1.,0.));
#1208=DIRECTION('',(0.,0.,-1.));
#1209=DIRECTION('',(-1.,0.,0.));
#1210=DIRECTION('',(0.,0.,-1.));
#1211=DIRECTION('',(0.,0.,-1.));
#1212=DIRECTION('',(0.,0.,1.));
#1213=DIRECTION('',(1.,0.,0.));
#1214=DIRECTION('',(0.,-1.,0.));
#1215=DIRECTION('',(0.,0.,1.));
#1216=DIRECTION('',(1.,0.,0.));
#1217=DIRECTION('',(-1.,0.,0.));
#1218=DIRECTION('',(0.,0.,1.));
#1219=DIRECTION('',(1.,0.,0.));
#1220=DIRECTION('',(0.,-1.,0.));
#1221=DIRECTION('',(0.,0.,1.));
#1222=DIRECTION('',(1.,0.,0.));
#1223=DIRECTION('',(-1.,0.,0.));
#1224=DIRECTION('',(0.,0.,1.));
#1225=DIRECTION('',(1.,0.,0.));
#1226=DIRECTION('',(0.,0.,1.));
#1227=DIRECTION('',(1.,0.,0.));
#1228=DIRECTION('',(0.,0.,1.));
#1229=DIRECTION('',(1.,0.,0.));
#1230=DIRECTION('',(0.,0.,1.));
#1231=DIRECTION('',(1.,0.,0.));
#1232=DIRECTION('',(0.,0.,1.));
#1233=DIRECTION('',(1.,0.,0.));
#1234=DIRECTION('',(0.,0.,1.));
#1235=DIRECTION('',(1.,0.,0.));
#1236=DIRECTION('',(0.,0.,1.));
#1237=DIRECTION('',(1.,0.,0.));
#1238=DIRECTION('',(0.,0.,1.));
#1239=DIRECTION('',(6.12323399573677E-17,1.,0.));
#1240=DIRECTION('',(0.,0.,1.));
#1241=DIRECTION('',(-1.,1.22464679914735E-16,0.));
#1242=DIRECTION('',(0.,0.,1.));
#1243=DIRECTION('',(-1.83697019872103E-16,-1.,0.));
#1244=DIRECTION('',(0.,0.,1.));
#1245=DIRECTION('',(1.,0.,0.));
#1246=DIRECTION('',(-1.,0.,0.));
#1247=DIRECTION('',(0.,0.,1.));
#1248=DIRECTION('',(1.,0.,0.));
#1249=DIRECTION('',(0.,-1.,0.));
#1250=DIRECTION('',(0.,0.,1.));
#1251=DIRECTION('',(1.,0.,0.));
#1252=DIRECTION('',(1.,0.,0.));
#1253=DIRECTION('',(0.,0.,1.));
#1254=DIRECTION('',(1.,0.,0.));
#1255=DIRECTION('',(0.,1.,0.));
#1256=DIRECTION('',(0.,0.,1.));
#1257=DIRECTION('',(1.,0.,0.));
#1258=DIRECTION('',(0.,-1.,0.));
#1259=DIRECTION('',(0.,0.,-1.));
#1260=DIRECTION('',(0.,0.,-1.));
#1261=DIRECTION('',(1.,0.,0.));
#1262=DIRECTION('',(0.,0.,-1.));
#1263=DIRECTION('',(1.,0.,0.));
#1264=DIRECTION('',(0.,0.,-1.));
#1265=DIRECTION('',(0.,0.,-1.));
#1266=DIRECTION('',(0.,1.,0.));
#1267=DIRECTION('',(0.,0.,-1.));
#1268=DIRECTION('',(0.,-1.,0.));
#1269=DIRECTION('',(0.,0.,-1.));
#1270=DIRECTION('',(0.,0.,-1.));
#1271=DIRECTION('',(-1.,0.,0.));
#1272=DIRECTION('',(0.,0.,-1.));
#1273=DIRECTION('',(1.,0.,0.));
#1274=DIRECTION('',(0.,0.,-1.));
#1275=DIRECTION('',(0.,0.,-1.));
#1276=DIRECTION('',(0.,-1.,0.));
#1277=DIRECTION('',(0.,0.,-1.));
#1278=DIRECTION('',(0.,0.,-1.));
#1279=DIRECTION('',(-1.,0.,0.));
#1280=DIRECTION('',(0.,0.,1.));
#1281=DIRECTION('',(1.,0.,0.));
#1282=DIRECTION('',(0.,0.,-1.));
#1283=DIRECTION('',(-1.,0.,0.));
#1284=DIRECTION('',(0.,0.,1.));
#1285=DIRECTION('',(1.,0.,0.));
#1286=DIRECTION('',(0.,0.,-1.));
#1287=DIRECTION('',(-1.,0.,0.));
#1288=DIRECTION('',(0.,0.,1.));
#1289=DIRECTION('',(1.,0.,0.));
#1290=DIRECTION('',(0.,0.,1.));
#1291=DIRECTION('',(1.,0.,0.));
#1292=DIRECTION('',(0.,0.,1.));
#1293=DIRECTION('',(1.,0.,0.));
#1294=DIRECTION('',(0.,0.,-1.));
#1295=DIRECTION('',(-1.,0.,0.));
#1296=DIRECTION('',(0.,0.,1.));
#1297=DIRECTION('',(1.,0.,0.));
#1298=DIRECTION('',(0.,0.,1.));
#1299=DIRECTION('',(1.,0.,0.));
#1300=DIRECTION('',(0.,0.,1.));
#1301=DIRECTION('',(1.,0.,0.));
#1302=DIRECTION('',(-0.707106781186548,0.,-0.707106781186548));
#1303=DIRECTION('',(0.,-1.,0.));
#1304=DIRECTION('',(-0.707106781186548,0.,0.707106781186548));
#1305=DIRECTION('',(0.707106781186548,0.,-0.707106781186548));
#1306=DIRECTION('',(0.,0.,-1.));
#1307=DIRECTION('',(-1.,0.,0.));
#1308=DIRECTION('',(0.,0.707106781186549,-0.707106781186546));
#1309=DIRECTION('',(0.,0.,-1.));
#1310=DIRECTION('',(-1.,0.,0.));
#1311=DIRECTION('',(0.,0.707106781186549,0.707106781186546));
#1312=DIRECTION('',(0.,0.707106781186548,0.707106781186548));
#1313=DIRECTION('',(1.,0.,0.));
#1314=DIRECTION('',(0.,0.707106781186548,-0.707106781186548));
#1315=DIRECTION('',(0.,0.707106781186548,-0.707106781186548));
#1316=DIRECTION('',(-1.,0.,0.));
#1317=DIRECTION('',(0.,0.707106781186548,0.707106781186548));
#1318=DIRECTION('',(0.,0.,-1.));
#1319=DIRECTION('',(-1.,0.,0.));
#1320=DIRECTION('',(-0.707106781186549,0.,-0.707106781186546));
#1321=DIRECTION('',(0.,0.,-1.));
#1322=DIRECTION('',(-1.,0.,0.));
#1323=DIRECTION('',(0.707106781186549,0.,0.707106781186546));
#1324=DIRECTION('',(-0.707106781186548,0.,0.707106781186548));
#1325=DIRECTION('',(0.,1.,0.));
#1326=DIRECTION('',(1.,0.,0.));
#1327=DIRECTION('',(0.,0.,-1.));
#1328=DIRECTION('',(0.,0.,1.));
#1329=DIRECTION('',(0.,1.,0.));
#1330=DIRECTION('',(0.,0.,1.));
#1331=DIRECTION('',(0.,0.,1.));
#1332=DIRECTION('',(0.,0.,1.));
#1333=DIRECTION('',(1.,0.,0.));
#1334=DIRECTION('',(0.,0.,1.));
#1335=DIRECTION('',(1.,0.,0.));
#1336=DIRECTION('',(0.,0.,1.));
#1337=DIRECTION('',(1.,0.,0.));
#1338=DIRECTION('',(0.,0.,1.));
#1339=DIRECTION('',(1.,0.,0.));
#1340=DIRECTION('',(-1.,0.,0.));
#1341=DIRECTION('',(0.,0.,-1.));
#1342=DIRECTION('',(0.,0.,1.));
#1343=DIRECTION('',(0.,1.,0.));
#1344=DIRECTION('',(0.,0.,1.));
#1345=DIRECTION('',(0.,0.,1.));
#1346=DIRECTION('',(0.,0.,1.));
#1347=DIRECTION('',(-1.,0.,0.));
#1348=DIRECTION('',(0.,0.,1.));
#1349=DIRECTION('',(-1.,0.,0.));
#1350=DIRECTION('',(0.,0.,-1.));
#1351=DIRECTION('',(-1.,0.,0.));
#1352=DIRECTION('',(0.,0.,1.));
#1353=DIRECTION('',(-1.,0.,0.));
#1354=DIRECTION('',(1.,0.,0.));
#1355=DIRECTION('',(0.,0.,-1.));
#1356=DIRECTION('',(0.,0.,1.));
#1357=DIRECTION('',(0.,-1.,0.));
#1358=DIRECTION('',(0.,0.,1.));
#1359=DIRECTION('',(0.,0.,1.));
#1360=DIRECTION('',(0.,0.,1.));
#1361=DIRECTION('',(1.,0.,0.));
#1362=DIRECTION('',(0.,0.,1.));
#1363=DIRECTION('',(1.,0.,0.));
#1364=DIRECTION('',(0.,0.,-1.));
#1365=DIRECTION('',(1.,0.,0.));
#1366=DIRECTION('',(0.,0.,1.));
#1367=DIRECTION('',(1.,0.,0.));
#1368=DIRECTION('',(-1.,0.,0.));
#1369=DIRECTION('',(0.,0.,-1.));
#1370=DIRECTION('',(0.,0.,1.));
#1371=DIRECTION('',(0.,-1.,0.));
#1372=DIRECTION('',(0.,0.,1.));
#1373=DIRECTION('',(0.,0.,1.));
#1374=DIRECTION('',(0.,0.,1.));
#1375=DIRECTION('',(-1.,0.,0.));
#1376=DIRECTION('',(0.,0.,1.));
#1377=DIRECTION('',(-1.,0.,0.));
#1378=DIRECTION('',(0.,0.,1.));
#1379=DIRECTION('',(-1.,0.,0.));
#1380=DIRECTION('',(0.,0.,1.));
#1381=DIRECTION('',(-1.,0.,0.));
#1382=DIRECTION('',(0.,0.,1.));
#1383=DIRECTION('',(1.,0.,0.));
#1384=DIRECTION('',(0.,0.,1.));
#1385=DIRECTION('',(-1.83697019872103E-16,-1.,0.));
#1386=DIRECTION('',(0.,0.,1.));
#1387=DIRECTION('',(-1.,1.22464679914735E-16,0.));
#1388=DIRECTION('',(0.,0.,1.));
#1389=DIRECTION('',(6.12323399573677E-17,1.,0.));
#1390=DIRECTION('',(0.,0.,1.));
#1391=DIRECTION('',(1.,0.,0.));
#1392=CARTESIAN_POINT('',(0.,0.,0.));
#1393=CARTESIAN_POINT('',(-3.46944695195361E-18,-0.0595,0.055));
#1394=CARTESIAN_POINT('',(0.051,-0.0595,0.048));
#1395=CARTESIAN_POINT('',(0.051,-0.0595,0.042));
#1396=CARTESIAN_POINT('',(0.051,-0.0595,0.055));
#1397=CARTESIAN_POINT('',(-3.46944695195361E-18,-0.0595,0.042));
#1398=CARTESIAN_POINT('',(-0.051,-0.0595,0.042));
#1399=CARTESIAN_POINT('',(-0.051,-0.0595,0.048));
#1400=CARTESIAN_POINT('',(-0.051,-0.0595,0.055));
#1401=CARTESIAN_POINT('',(-3.46944695195361E-18,-0.0595,0.055));
#1402=CARTESIAN_POINT('',(0.,0.,0.055));
#1403=CARTESIAN_POINT('',(0.,0.025,0.055));
#1404=CARTESIAN_POINT('',(0.00275,0.025,0.055));
#1405=CARTESIAN_POINT('',(-0.025,1.53080849893419E-18,0.055));
#1406=CARTESIAN_POINT('',(-0.025,0.00275,0.055));
#1407=CARTESIAN_POINT('',(-3.06161699786838E-18,-0.025,0.055));
#1408=CARTESIAN_POINT('',(-0.00275,-0.025,0.055));
#1409=CARTESIAN_POINT('',(0.025,-4.59242549680257E-18,0.055));
#1410=CARTESIAN_POINT('',(0.025,-0.00275,0.055));
#1411=CARTESIAN_POINT('',(0.,1.28587913910472E-19,0.055));
#1412=CARTESIAN_POINT('',(0.0021,1.28587913910472E-19,0.055));
#1413=CARTESIAN_POINT('',(0.057,-0.057,0.055));
#1414=CARTESIAN_POINT('',(0.057,-0.051,0.055));
#1415=CARTESIAN_POINT('',(0.051,-0.057,0.055));
#1416=CARTESIAN_POINT('',(0.051,-0.05825,0.055));
#1417=CARTESIAN_POINT('',(-0.051,-0.05825,0.055));
#1418=CARTESIAN_POINT('',(-0.051,-0.057,0.055));
#1419=CARTESIAN_POINT('',(-0.057,-0.057,0.055));
#1420=CARTESIAN_POINT('',(-0.057,-0.051,0.055));
#1421=CARTESIAN_POINT('',(-0.05825,-0.051,0.055));
#1422=CARTESIAN_POINT('',(-0.0595,-0.051,0.055));
#1423=CARTESIAN_POINT('',(-0.0595,-0.00425,0.055));
#1424=CARTESIAN_POINT('',(-0.0595,0.051,0.055));
#1425=CARTESIAN_POINT('',(-0.05825,0.051,0.055));
#1426=CARTESIAN_POINT('',(-0.057,0.051,0.055));
#1427=CARTESIAN_POINT('',(-0.057,0.057,0.055));
#1428=CARTESIAN_POINT('',(-0.051,0.057,0.055));
#1429=CARTESIAN_POINT('',(-0.051,0.05825,0.055));
#1430=CARTESIAN_POINT('',(-0.051,0.0595,0.055));
#1431=CARTESIAN_POINT('',(-0.05525,0.0595,0.055));
#1432=CARTESIAN_POINT('',(0.051,0.0595,0.055));
#1433=CARTESIAN_POINT('',(0.051,0.05825,0.055));
#1434=CARTESIAN_POINT('',(0.051,0.057,0.055));
#1435=CARTESIAN_POINT('',(0.057,0.057,0.055));
#1436=CARTESIAN_POINT('',(0.057,0.051,0.055));
#1437=CARTESIAN_POINT('',(0.05825,0.051,0.055));
#1438=CARTESIAN_POINT('',(0.0595,0.051,0.055));
#1439=CARTESIAN_POINT('',(0.0595,0.,0.055));
#1440=CARTESIAN_POINT('',(0.0595,-0.051,0.055));
#1441=CARTESIAN_POINT('',(0.05825,-0.051,0.055));
#1442=CARTESIAN_POINT('',(-0.05525,0.0595,0.055));
#1443=CARTESIAN_POINT('',(-0.05525,0.0595,0.042));
#1444=CARTESIAN_POINT('',(0.051,0.0595,0.042));
#1445=CARTESIAN_POINT('',(-0.051,0.0595,0.042));
#1446=CARTESIAN_POINT('',(0.051,0.0595,0.048));
#1447=CARTESIAN_POINT('',(-0.051,0.0595,0.048));
#1448=CARTESIAN_POINT('',(0.0595,0.,0.055));
#1449=CARTESIAN_POINT('',(0.0595,0.,0.042));
#1450=CARTESIAN_POINT('',(0.0595,0.051,0.042));
#1451=CARTESIAN_POINT('',(0.0595,-0.051,0.042));
#1452=CARTESIAN_POINT('',(0.0595,-0.051,0.048));
#1453=CARTESIAN_POINT('',(0.0595,0.051,0.048));
#1454=CARTESIAN_POINT('',(-0.0595,-0.00425,0.055));
#1455=CARTESIAN_POINT('',(-0.0595,-0.051,0.048));
#1456=CARTESIAN_POINT('',(-0.0595,-0.051,0.042));
#1457=CARTESIAN_POINT('',(-0.0595,-0.00425,0.042));
#1458=CARTESIAN_POINT('',(-0.0595,0.051,0.042));
#1459=CARTESIAN_POINT('',(-0.0595,0.051,0.048));
#1460=CARTESIAN_POINT('',(0.,0.,0.042));
#1461=CARTESIAN_POINT('',(0.05825,-0.051,0.042));
#1462=CARTESIAN_POINT('',(0.057,-0.051,0.042));
#1463=CARTESIAN_POINT('',(0.05825,0.051,0.042));
#1464=CARTESIAN_POINT('',(0.057,0.051,0.042));
#1465=CARTESIAN_POINT('',(0.057,0.057,0.042));
#1466=CARTESIAN_POINT('',(0.051,0.057,0.042));
#1467=CARTESIAN_POINT('',(0.051,0.05825,0.042));
#1468=CARTESIAN_POINT('',(-0.051,0.05825,0.042));
#1469=CARTESIAN_POINT('',(-0.051,0.057,0.042));
#1470=CARTESIAN_POINT('',(-0.057,0.057,0.042));
#1471=CARTESIAN_POINT('',(-0.057,0.051,0.042));
#1472=CARTESIAN_POINT('',(-0.05825,0.051,0.042));
#1473=CARTESIAN_POINT('',(-0.05825,-0.051,0.042));
#1474=CARTESIAN_POINT('',(-0.057,-0.051,0.042));
#1475=CARTESIAN_POINT('',(-0.057,-0.057,0.042));
#1476=CARTESIAN_POINT('',(-0.051,-0.057,0.042));
#1477=CARTESIAN_POINT('',(-0.051,-0.05825,0.042));
#1478=CARTESIAN_POINT('',(0.051,-0.05825,0.042));
#1479=CARTESIAN_POINT('',(0.051,-0.057,0.042));
#1480=CARTESIAN_POINT('',(0.057,-0.057,0.042));
#1481=CARTESIAN_POINT('',(0.057,0.057,0.042));
#1482=CARTESIAN_POINT('',(0.055,0.057,0.042));
#1483=CARTESIAN_POINT('',(0.051075,0.06095,0.042));
#1484=CARTESIAN_POINT('',(0.05795,0.06095,0.042));
#1485=CARTESIAN_POINT('',(-0.05795,0.06095,0.042));
#1486=CARTESIAN_POINT('',(0.05795,0.05795,0.042));
#1487=CARTESIAN_POINT('',(0.06095,0.05795,0.042));
#1488=CARTESIAN_POINT('',(0.06095,0.,0.042));
#1489=CARTESIAN_POINT('',(0.06095,-0.05795,0.042));
#1490=CARTESIAN_POINT('',(0.05795,-0.05795,0.042));
#1491=CARTESIAN_POINT('',(0.05795,-0.06095,0.042));
#1492=CARTESIAN_POINT('',(0.,-0.06095,0.042));
#1493=CARTESIAN_POINT('',(-0.05795,-0.06095,0.042));
#1494=CARTESIAN_POINT('',(-0.05795,-0.05795,0.042));
#1495=CARTESIAN_POINT('',(-0.06095,-0.05795,0.042));
#1496=CARTESIAN_POINT('',(-0.06095,0.,0.042));
#1497=CARTESIAN_POINT('',(-0.06095,0.05795,0.042));
#1498=CARTESIAN_POINT('',(-0.05795,0.05795,0.042));
#1499=CARTESIAN_POINT('',(-0.057,0.057,0.042));
#1500=CARTESIAN_POINT('',(-0.055,0.057,0.042));
#1501=CARTESIAN_POINT('',(-0.057,-0.057,0.042));
#1502=CARTESIAN_POINT('',(-0.055,-0.057,0.042));
#1503=CARTESIAN_POINT('',(0.057,-0.057,0.042));
#1504=CARTESIAN_POINT('',(0.055,-0.057,0.042));
#1505=CARTESIAN_POINT('',(-0.06095,0.,0.042));
#1506=CARTESIAN_POINT('',(-0.06095,0.,0.041));
#1507=CARTESIAN_POINT('',(-0.06095,0.05795,0.041));
#1508=CARTESIAN_POINT('',(-0.06095,-0.05795,0.041));
#1509=CARTESIAN_POINT('',(-0.06095,0.05795,0.042));
#1510=CARTESIAN_POINT('',(-0.06095,-0.05795,0.042));
#1511=CARTESIAN_POINT('',(0.051075,0.06095,0.042));
#1512=CARTESIAN_POINT('',(0.051075,0.06095,0.041));
#1513=CARTESIAN_POINT('',(0.05795,0.06095,0.041));
#1514=CARTESIAN_POINT('',(-0.05795,0.06095,0.041));
#1515=CARTESIAN_POINT('',(0.05795,0.06095,0.042));
#1516=CARTESIAN_POINT('',(-0.05795,0.06095,0.041));
#1517=CARTESIAN_POINT('',(0.06095,0.,0.042));
#1518=CARTESIAN_POINT('',(0.06095,0.05795,0.042));
#1519=CARTESIAN_POINT('',(0.06095,0.05795,0.041));
#1520=CARTESIAN_POINT('',(0.06095,0.,0.041));
#1521=CARTESIAN_POINT('',(0.06095,-0.05795,0.041));
#1522=CARTESIAN_POINT('',(0.06095,-0.05795,0.042));
#1523=CARTESIAN_POINT('',(0.,-0.06095,0.042));
#1524=CARTESIAN_POINT('',(0.,-0.06095,0.041));
#1525=CARTESIAN_POINT('',(0.05795,-0.06095,0.041));
#1526=CARTESIAN_POINT('',(-0.05795,-0.06095,0.041));
#1527=CARTESIAN_POINT('',(-0.05795,-0.06095,0.042));
#1528=CARTESIAN_POINT('',(0.05795,-0.06095,0.041));
#1529=CARTESIAN_POINT('',(0.,0.,0.041));
#1530=CARTESIAN_POINT('',(0.0623,0.,0.041));
#1531=CARTESIAN_POINT('',(0.0623,0.0593,0.041));
#1532=CARTESIAN_POINT('',(0.0623,-0.0593,0.041));
#1533=CARTESIAN_POINT('',(0.0593,-0.0593,0.041));
#1534=CARTESIAN_POINT('',(0.0593,-0.0623,0.041));
#1535=CARTESIAN_POINT('',(0.,-0.0623,0.041));
#1536=CARTESIAN_POINT('',(-0.0593,-0.0623,0.041));
#1537=CARTESIAN_POINT('',(-0.0593,-0.0593,0.041));
#1538=CARTESIAN_POINT('',(-0.0623,-0.0593,0.041));
#1539=CARTESIAN_POINT('',(-0.0623,0.,0.041));
#1540=CARTESIAN_POINT('',(-0.0623,0.0593,0.041));
#1541=CARTESIAN_POINT('',(-0.0593,0.0593,0.041));
#1542=CARTESIAN_POINT('',(-0.0593,0.0623,0.041));
#1543=CARTESIAN_POINT('',(-0.05365,0.0623,0.041));
#1544=CARTESIAN_POINT('',(0.0593,0.0623,0.041));
#1545=CARTESIAN_POINT('',(0.0593,0.0593,0.041));
#1546=CARTESIAN_POINT('',(-0.05795,0.05795,0.041));
#1547=CARTESIAN_POINT('',(-0.05795,-0.05795,0.041));
#1548=CARTESIAN_POINT('',(0.05795,-0.05795,0.041));
#1549=CARTESIAN_POINT('',(0.05795,0.05795,0.041));
#1550=CARTESIAN_POINT('',(0.,0.,0.057));
#1551=CARTESIAN_POINT('',(0.,0.025,0.057));
#1552=CARTESIAN_POINT('',(0.00275,0.025,0.057));
#1553=CARTESIAN_POINT('',(-0.025,1.53080849893419E-18,0.057));
#1554=CARTESIAN_POINT('',(-0.025,0.00275,0.057));
#1555=CARTESIAN_POINT('',(-3.06161699786838E-18,-0.025,0.057));
#1556=CARTESIAN_POINT('',(-0.00275,-0.025,0.057));
#1557=CARTESIAN_POINT('',(0.025,-4.59242549680257E-18,0.057));
#1558=CARTESIAN_POINT('',(0.025,-0.00275,0.057));
#1559=CARTESIAN_POINT('',(0.,1.28587913910472E-19,0.057));
#1560=CARTESIAN_POINT('',(0.0021,1.28587913910472E-19,0.057));
#1561=CARTESIAN_POINT('',(-0.0593,0.0607,0.057));
#1562=CARTESIAN_POINT('',(0.0593,0.0607,0.057));
#1563=CARTESIAN_POINT('',(-0.0593,0.0607,0.057));
#1564=CARTESIAN_POINT('',(-0.0593,0.0593,0.057));
#1565=CARTESIAN_POINT('',(-0.0607,0.0593,0.057));
#1566=CARTESIAN_POINT('',(-0.0607,-0.0593,0.057));
#1567=CARTESIAN_POINT('',(-0.0607,-0.0593,0.057));
#1568=CARTESIAN_POINT('',(-0.0593,-0.0593,0.057));
#1569=CARTESIAN_POINT('',(-0.0593,-0.0607,0.057));
#1570=CARTESIAN_POINT('',(0.,-0.0607,0.057));
#1571=CARTESIAN_POINT('',(0.0593,-0.0607,0.057));
#1572=CARTESIAN_POINT('',(0.0593,-0.0593,0.057));
#1573=CARTESIAN_POINT('',(0.0607,-0.0593,0.057));
#1574=CARTESIAN_POINT('',(0.0607,0.,0.057));
#1575=CARTESIAN_POINT('',(0.0607,0.0593,0.057));
#1576=CARTESIAN_POINT('',(0.0593,0.0593,0.057));
#1577=CARTESIAN_POINT('',(-0.05365,0.0623,0.055));
#1578=CARTESIAN_POINT('',(-0.0593,0.0623,0.055));
#1579=CARTESIAN_POINT('',(-0.0593,0.0623,0.0554));
#1580=CARTESIAN_POINT('',(0.0593,0.0623,0.0554));
#1581=CARTESIAN_POINT('',(0.0593,0.0623,0.0554));
#1582=CARTESIAN_POINT('',(0.0593,0.0623,0.041));
#1583=CARTESIAN_POINT('',(-0.0623,0.,0.055));
#1584=CARTESIAN_POINT('',(-0.0623,-0.0593,0.057));
#1585=CARTESIAN_POINT('',(-0.0623,-0.0593,0.0554));
#1586=CARTESIAN_POINT('',(-0.0623,0.0593,0.0554));
#1587=CARTESIAN_POINT('',(-0.0623,0.0593,0.0554));
#1588=CARTESIAN_POINT('',(-0.0623,0.0593,0.055));
#1589=CARTESIAN_POINT('',(0.,-0.0623,0.055));
#1590=CARTESIAN_POINT('',(0.0593,-0.0623,0.055));
#1591=CARTESIAN_POINT('',(0.0593,-0.0623,0.0554));
#1592=CARTESIAN_POINT('',(0.,-0.0623,0.0554));
#1593=CARTESIAN_POINT('',(-0.0593,-0.0623,0.0554));
#1594=CARTESIAN_POINT('',(-0.0593,-0.0623,0.041));
#1595=CARTESIAN_POINT('',(0.0623,0.,0.055));
#1596=CARTESIAN_POINT('',(0.0623,0.0593,0.057));
#1597=CARTESIAN_POINT('',(0.0623,0.0593,0.0554));
#1598=CARTESIAN_POINT('',(0.0623,0.,0.0554));
#1599=CARTESIAN_POINT('',(0.0623,-0.0593,0.0554));
#1600=CARTESIAN_POINT('',(0.0623,-0.0593,0.055));
#1601=CARTESIAN_POINT('',(0.05795,0.05795,0.042));
#1602=CARTESIAN_POINT('',(-0.05795,0.05795,0.042));
#1603=CARTESIAN_POINT('',(-0.05795,-0.05795,0.042));
#1604=CARTESIAN_POINT('',(0.05795,-0.05795,0.042));
#1605=CARTESIAN_POINT('',(0.0593,-0.0593,0.055));
#1606=CARTESIAN_POINT('',(0.0593,-0.0593,0.0554));
#1607=CARTESIAN_POINT('',(0.0593,0.0593,0.055));
#1608=CARTESIAN_POINT('',(0.0593,0.0593,0.0554));
#1609=CARTESIAN_POINT('',(-0.0593,0.0593,0.055));
#1610=CARTESIAN_POINT('',(-0.0593,0.0593,0.0554));
#1611=CARTESIAN_POINT('',(-0.0593,-0.0593,0.055));
#1612=CARTESIAN_POINT('',(-0.0593,-0.0593,0.0554));
#1613=CARTESIAN_POINT('',(0.0623,0.,0.0554));
#1614=CARTESIAN_POINT('',(0.0623,-0.0593,0.0554));
#1615=CARTESIAN_POINT('',(0.0607,0.0593,0.057));
#1616=CARTESIAN_POINT('',(0.0593,0.0593,0.057));
#1617=CARTESIAN_POINT('',(0.0593,0.0607,0.057));
#1618=CARTESIAN_POINT('',(0.0593,-0.0593,0.057));
#1619=CARTESIAN_POINT('',(0.0593,-0.0623,0.0554));
#1620=CARTESIAN_POINT('',(0.,0.0607,0.057));
#1621=CARTESIAN_POINT('',(-0.0593,0.0607,0.057));
#1622=CARTESIAN_POINT('',(0.,-0.0623,0.0554));
#1623=CARTESIAN_POINT('',(-0.0593,-0.0623,0.0554));
#1624=CARTESIAN_POINT('',(-0.0593,0.0593,0.057));
#1625=CARTESIAN_POINT('',(-0.0607,0.0593,0.057));
#1626=CARTESIAN_POINT('',(-0.0593,-0.0593,0.057));
#1627=CARTESIAN_POINT('',(-0.0623,-0.0593,0.0554));
#1628=CARTESIAN_POINT('',(-0.0607,0.,0.057));
#1629=CARTESIAN_POINT('',(-0.051,0.05825,0.048));
#1630=CARTESIAN_POINT('',(-0.051,0.057,0.048));
#1631=CARTESIAN_POINT('',(-0.05825,0.051,0.048));
#1632=CARTESIAN_POINT('',(-0.057,0.051,0.048));
#1633=CARTESIAN_POINT('',(-0.057,0.057,0.048));
#1634=CARTESIAN_POINT('',(-0.057,0.057,0.042));
#1635=CARTESIAN_POINT('',(-0.057,0.057,0.048));
#1636=CARTESIAN_POINT('',(-0.055,0.057,0.048));
#1637=CARTESIAN_POINT('',(0.,0.,0.048));
#1638=CARTESIAN_POINT('',(0.051,0.05825,0.048));
#1639=CARTESIAN_POINT('',(0.051,0.057,0.048));
#1640=CARTESIAN_POINT('',(0.05825,0.051,0.048));
#1641=CARTESIAN_POINT('',(0.057,0.051,0.048));
#1642=CARTESIAN_POINT('',(0.057,0.057,0.048));
#1643=CARTESIAN_POINT('',(0.057,0.057,0.042));
#1644=CARTESIAN_POINT('',(0.057,0.057,0.048));
#1645=CARTESIAN_POINT('',(0.055,0.057,0.048));
#1646=CARTESIAN_POINT('',(0.,0.,0.048));
#1647=CARTESIAN_POINT('',(-0.051,-0.05825,0.048));
#1648=CARTESIAN_POINT('',(-0.051,-0.057,0.048));
#1649=CARTESIAN_POINT('',(-0.05825,-0.051,0.048));
#1650=CARTESIAN_POINT('',(-0.057,-0.051,0.048));
#1651=CARTESIAN_POINT('',(-0.057,-0.057,0.048));
#1652=CARTESIAN_POINT('',(-0.057,-0.057,0.042));
#1653=CARTESIAN_POINT('',(-0.057,-0.057,0.048));
#1654=CARTESIAN_POINT('',(-0.055,-0.057,0.048));
#1655=CARTESIAN_POINT('',(0.,0.,0.048));
#1656=CARTESIAN_POINT('',(0.051,-0.05825,0.048));
#1657=CARTESIAN_POINT('',(0.051,-0.057,0.048));
#1658=CARTESIAN_POINT('',(0.05825,-0.051,0.048));
#1659=CARTESIAN_POINT('',(0.057,-0.051,0.048));
#1660=CARTESIAN_POINT('',(0.057,-0.057,0.048));
#1661=CARTESIAN_POINT('',(0.057,-0.057,0.042));
#1662=CARTESIAN_POINT('',(0.057,-0.057,0.048));
#1663=CARTESIAN_POINT('',(0.055,-0.057,0.048));
#1664=CARTESIAN_POINT('',(0.,0.,0.048));
#1665=CARTESIAN_POINT('',(0.,1.28587913910472E-19,0.040998));
#1666=CARTESIAN_POINT('',(0.025,-4.59242549680257E-18,0.040998));
#1667=CARTESIAN_POINT('',(-3.06161699786838E-18,-0.025,0.040998));
#1668=CARTESIAN_POINT('',(-0.025,1.53080849893419E-18,0.040998));
#1669=CARTESIAN_POINT('',(0.,0.025,0.040998));
#1670=MECHANICAL_DESIGN_GEOMETRIC_PRESENTATION_REPRESENTATION('',(#985),
#1671);
#1671=(
GEOMETRIC_REPRESENTATION_CONTEXT(3)
GLOBAL_UNCERTAINTY_ASSIGNED_CONTEXT((#1672))
GLOBAL_UNIT_ASSIGNED_CONTEXT((#1675,#1674,#1673))
REPRESENTATION_CONTEXT('Top','TOP_LEVEL_ASSEMBLY_PART')
);
#1672=UNCERTAINTY_MEASURE_WITH_UNIT(LENGTH_MEASURE(5.E-6),#1675,
'DISTANCE_ACCURACY_VALUE','Maximum Tolerance applied to model');
#1673=(
NAMED_UNIT(*)
SI_UNIT($,.STERADIAN.)
SOLID_ANGLE_UNIT()
);
#1674=(
NAMED_UNIT(*)
PLANE_ANGLE_UNIT()
SI_UNIT($,.RADIAN.)
);
#1675=(
LENGTH_UNIT()
NAMED_UNIT(*)
SI_UNIT($,.METRE.)
);
#1676=PRODUCT_DEFINITION_SHAPE('','',#1677);
#1677=PRODUCT_DEFINITION('','',#1679,#1678);
#1678=PRODUCT_DEFINITION_CONTEXT('',#1685,'design');
#1679=PRODUCT_DEFINITION_FORMATION_WITH_SPECIFIED_SOURCE('','',#1681,
 .NOT_KNOWN.);
#1680=PRODUCT_RELATED_PRODUCT_CATEGORY('','',(#1681));
#1681=PRODUCT('Top','Top','Top',(#1683));
#1682=PRODUCT_CATEGORY('','');
#1683=PRODUCT_CONTEXT('',#1685,'mechanical');
#1684=APPLICATION_PROTOCOL_DEFINITION('international standard',
'ap242_managed_model_based_3d_engineering',2011,#1685);
#1685=APPLICATION_CONTEXT('managed model based 3d engineering');
ENDSEC;
END-ISO-10303-21;
